<?xml version="1.0" standalone="no"?>
<!DOCTYPE svg PUBLIC "-//W3C//DTD SVG 20010904//EN"
 "http://www.w3.org/TR/2001/REC-SVG-20010904/DTD/svg10.dtd">
<svg version="1.0" xmlns="http://www.w3.org/2000/svg"
 width="840.000000pt" height="859.000000pt" viewBox="0 0 840.000000 859.000000"
 preserveAspectRatio="xMidYMid meet">

<g transform="translate(0.000000,859.000000) scale(0.100000,-0.100000)"
fill="#000000" stroke="none">
<path d="M5408 7581 c-1 -5 -41 -12 -88 -16 -47 -3 -89 -10 -94 -16 -6 -5 -36
-9 -67 -9 -41 0 -58 -4 -63 -15 -3 -9 -19 -15 -41 -15 -19 0 -35 -4 -35 -10 0
-5 -11 -10 -25 -10 -16 0 -25 -6 -25 -15 0 -9 -9 -15 -24 -15 -14 0 -28 -4
-31 -10 -3 -5 -14 -10 -25 -10 -10 0 -20 -7 -24 -15 -3 -8 -17 -15 -31 -15
-14 0 -24 -3 -23 -7 2 -5 -1 -9 -6 -10 -5 0 -13 -8 -18 -17 -5 -9 -18 -16 -28
-16 -11 0 -20 -7 -20 -15 0 -8 -7 -15 -15 -15 -8 0 -15 -4 -15 -10 0 -5 -7
-10 -16 -10 -8 0 -13 -4 -10 -8 6 -9 -29 -42 -44 -42 -6 0 -10 -5 -10 -11 0
-7 -16 -26 -35 -45 -19 -18 -35 -37 -35 -43 0 -6 -7 -11 -15 -11 -8 0 -15 -4
-15 -10 0 -5 -7 -10 -15 -10 -8 0 -15 5 -15 10 0 6 -13 10 -29 10 -16 0 -34 7
-41 15 -7 8 -23 15 -35 15 -13 0 -25 4 -27 9 -1 6 -32 11 -66 12 -37 1 -70 8
-77 16 -19 18 -103 17 -121 -2 -11 -10 -36 -15 -80 -15 -36 0 -64 -4 -64 -10
0 -5 -18 -10 -40 -10 -29 0 -40 -4 -40 -15 0 -9 -9 -15 -25 -15 -14 0 -25 -4
-25 -10 0 -5 -11 -10 -25 -10 -16 0 -25 -6 -25 -15 0 -8 -7 -15 -15 -15 -8 0
-15 -4 -15 -9 0 -5 -9 -13 -20 -16 -33 -10 -180 -161 -180 -185 0 -11 -7 -20
-15 -20 -8 0 -15 -7 -15 -15 0 -11 -11 -15 -39 -15 -22 0 -41 -4 -43 -10 -1
-5 -34 -12 -73 -15 -38 -3 -71 -10 -73 -15 -2 -6 -28 -10 -58 -10 -36 0 -54
-4 -54 -12 0 -9 -20 -14 -58 -16 -31 -2 -58 -7 -60 -13 -2 -5 -28 -9 -58 -9
-41 0 -54 -4 -54 -15 0 -11 -11 -15 -40 -15 -22 0 -40 -4 -40 -10 0 -5 -22
-10 -50 -10 -38 0 -50 -4 -50 -15 0 -10 -10 -15 -34 -15 -19 0 -36 -5 -38 -10
-2 -6 -19 -12 -38 -15 -19 -2 -36 -9 -38 -15 -2 -5 -21 -10 -42 -10 -24 0 -40
-5 -44 -15 -3 -9 -19 -15 -41 -15 -19 0 -35 -4 -35 -10 0 -5 -15 -10 -34 -10
-21 0 -36 -6 -40 -15 -3 -8 -17 -15 -31 -15 -14 0 -25 -4 -25 -10 0 -19 -19
-10 -25 11 -8 24 -60 79 -75 79 -6 0 -10 4 -10 10 0 5 -16 12 -35 16 -19 3
-35 10 -35 15 0 12 -47 12 -52 0 -1 -6 -19 -13 -38 -16 -19 -3 -36 -10 -38
-16 -2 -5 -15 -9 -28 -9 -13 0 -24 -5 -24 -11 0 -14 -25 -39 -39 -39 -6 0 -11
-11 -11 -24 0 -13 -6 -26 -12 -28 -9 -3 -14 -35 -16 -96 -2 -51 -8 -89 -13
-86 -5 3 -9 -2 -9 -10 0 -9 -7 -16 -15 -16 -8 0 -15 -4 -15 -10 0 -5 -7 -10
-15 -10 -8 0 -15 5 -15 10 0 6 -16 10 -35 10 -19 0 -35 5 -35 10 0 6 -28 10
-65 10 -37 0 -65 -4 -65 -10 0 -5 -18 -10 -40 -10 -29 0 -40 -4 -40 -15 0 -8
-5 -15 -11 -15 -16 0 -69 -62 -69 -82 0 -9 -6 -19 -12 -21 -9 -4 -10 -8 -2
-14 6 -4 14 -31 18 -60 5 -40 3 -55 -9 -67 -9 -9 -21 -16 -26 -16 -6 0 -25
-16 -43 -35 -19 -19 -38 -35 -45 -35 -6 0 -11 -4 -11 -9 0 -5 -10 -13 -22 -17
-26 -8 -48 -28 -48 -43 0 -6 -7 -11 -15 -11 -8 0 -15 -5 -15 -11 0 -11 -24
-39 -34 -39 -10 0 -66 -59 -66 -70 0 -5 -5 -10 -11 -10 -14 0 -39 -25 -39 -39
0 -6 -7 -11 -15 -11 -8 0 -15 -5 -15 -11 0 -19 -28 -39 -54 -39 -21 0 -26 5
-26 25 0 16 -6 25 -15 25 -8 0 -15 4 -15 10 0 5 -11 12 -25 16 -14 3 -25 10
-25 15 0 5 -7 9 -15 9 -8 0 -14 6 -12 13 1 7 -12 13 -35 15 -21 2 -38 7 -38
13 0 5 -7 9 -15 9 -8 0 -15 -4 -15 -10 0 -5 -22 -10 -50 -10 -38 0 -50 -4 -50
-15 0 -8 -5 -15 -11 -15 -6 0 -17 -6 -24 -12 -33 -30 -45 -38 -55 -38 -5 0
-10 -11 -10 -25 0 -14 -4 -25 -10 -25 -5 0 -12 -11 -16 -25 -3 -14 -10 -25
-15 -25 -5 0 -9 -29 -9 -65 0 -36 4 -65 9 -65 5 0 12 -29 16 -65 3 -36 11 -65
16 -65 5 0 9 -18 9 -40 0 -28 -4 -40 -14 -40 -8 0 -16 6 -19 13 -2 7 -20 14
-38 15 -19 1 -36 7 -37 12 -4 12 -152 13 -152 1 0 -5 -18 -11 -40 -15 -22 -3
-40 -10 -40 -15 0 -4 -16 -16 -35 -27 -19 -10 -35 -22 -35 -26 0 -5 -7 -8 -15
-8 -8 0 -15 -6 -15 -14 0 -8 -5 -16 -10 -18 -6 -2 -13 -17 -16 -33 -3 -17 -9
-31 -15 -33 -12 -5 -12 -32 1 -32 6 0 10 -11 10 -24 0 -14 7 -31 15 -40 8 -8
15 -22 15 -31 0 -9 11 -26 25 -39 14 -13 25 -28 25 -35 0 -6 5 -11 11 -11 14
0 39 -25 39 -39 0 -6 11 -11 25 -11 14 0 25 -4 25 -10 0 -5 7 -10 15 -10 8 0
15 -7 15 -15 0 -9 9 -15 25 -15 14 0 25 -4 25 -10 0 -5 9 -10 20 -10 11 0 23
-7 26 -15 4 -8 14 -15 23 -15 9 0 28 -11 43 -25 15 -14 32 -25 38 -25 17 0 12
-230 -6 -237 -19 -7 -20 -151 -1 -158 17 -7 17 -277 0 -282 -18 -6 -18 -129 0
-136 8 -3 13 -40 15 -123 2 -66 7 -121 12 -124 4 -3 10 -39 13 -80 3 -41 11
-76 16 -78 6 -2 11 -25 11 -52 0 -33 5 -50 15 -54 9 -3 15 -19 15 -41 0 -19 5
-35 10 -35 6 0 10 -18 10 -40 0 -29 4 -40 15 -40 10 0 15 -11 15 -35 0 -19 5
-35 10 -35 6 0 10 -11 10 -25 0 -14 7 -28 15 -31 9 -4 15 -19 15 -39 0 -20 6
-35 15 -39 8 -3 15 -14 15 -25 0 -11 4 -23 10 -26 5 -3 10 -17 10 -31 0 -15 6
-24 15 -24 9 0 15 -9 15 -25 0 -14 5 -25 10 -25 6 0 10 -11 10 -25 0 -16 6
-25 15 -25 8 0 15 -7 15 -15 0 -8 4 -15 9 -15 5 0 12 -11 15 -25 4 -14 11 -25
16 -25 6 0 10 -11 10 -25 0 -14 5 -25 11 -25 14 0 38 -30 39 -48 0 -7 11 -23
25 -36 14 -13 25 -28 25 -35 0 -6 7 -11 15 -11 9 0 15 -9 15 -25 0 -16 6 -25
15 -25 8 0 14 -3 13 -8 -2 -4 9 -21 25 -37 15 -16 27 -35 27 -42 0 -7 5 -13
10 -13 6 0 10 -7 10 -15 0 -8 4 -15 10 -15 15 0 50 -33 44 -42 -3 -4 2 -8 10
-8 9 0 16 -7 16 -15 0 -8 5 -15 11 -15 6 0 17 -6 25 -14 8 -8 14 -19 14 -25 0
-6 5 -11 11 -11 6 0 17 -6 25 -14 8 -8 14 -19 14 -25 0 -6 4 -11 10 -11 15 0
50 -33 44 -42 -3 -4 2 -8 10 -8 9 0 16 -7 16 -15 0 -8 5 -15 11 -15 14 0 39
-25 39 -39 0 -6 4 -11 10 -11 15 0 50 -33 44 -42 -3 -4 2 -8 10 -8 9 0 16 -4
16 -9 0 -5 11 -12 25 -15 14 -4 25 -11 25 -16 0 -6 7 -10 15 -10 8 0 15 -5 15
-11 0 -15 22 -35 48 -43 12 -4 22 -12 22 -17 0 -5 5 -9 11 -9 7 0 22 -11 35
-25 13 -14 28 -25 33 -25 6 0 21 -11 34 -24 13 -13 33 -27 45 -30 12 -4 22
-12 22 -17 0 -5 7 -9 15 -9 8 0 15 -4 15 -9 0 -5 11 -12 25 -15 14 -4 25 -11
25 -16 0 -6 7 -10 15 -10 8 0 15 -4 15 -10 0 -5 11 -12 25 -16 14 -3 25 -10
25 -15 0 -5 9 -9 20 -9 11 0 23 -7 26 -15 4 -8 12 -15 20 -15 8 0 14 -4 14
-10 0 -5 11 -10 25 -10 16 0 25 -6 25 -15 0 -9 9 -15 24 -15 13 0 26 -5 28
-10 2 -6 13 -12 26 -13 12 0 22 -7 22 -14 0 -7 11 -13 25 -13 14 0 28 -7 31
-15 4 -8 17 -15 30 -15 13 0 24 -4 24 -10 0 -5 11 -10 25 -10 16 0 25 -6 25
-15 0 -9 9 -15 25 -15 14 0 25 -4 25 -10 0 -5 11 -10 25 -10 16 0 25 -6 25
-15 0 -11 11 -15 36 -15 19 0 42 -7 51 -15 8 -8 19 -13 24 -9 5 3 12 -2 15
-10 4 -11 19 -16 45 -16 28 0 39 -4 39 -15 0 -10 11 -15 35 -15 19 0 35 -4 35
-10 0 -5 11 -10 25 -10 14 0 28 -7 31 -15 4 -10 20 -15 45 -15 21 0 39 -4 39
-9 0 -4 21 -11 47 -14 26 -3 49 -10 51 -16 2 -6 21 -11 42 -11 21 0 40 -5 42
-11 2 -6 24 -13 48 -16 25 -3 47 -9 48 -14 2 -5 26 -9 53 -9 37 0 49 -4 49
-15 0 -12 14 -15 64 -15 35 0 66 -4 68 -9 1 -5 31 -11 66 -13 42 -2 62 -7 62
-15 0 -9 21 -13 74 -13 41 0 76 -4 78 -9 1 -5 48 -11 102 -15 55 -3 102 -10
105 -15 4 -5 90 -11 199 -12 152 -2 192 -5 192 -16 0 -7 7 -13 15 -13 8 0 15
7 15 15 0 8 5 15 10 15 6 0 10 -7 10 -15 0 -12 17 -15 89 -15 75 0 90 3 96 18
6 16 8 16 21 -3 14 -18 16 -18 27 -4 10 13 43 16 212 18 110 1 202 7 205 12 3
5 48 11 100 15 52 3 99 10 105 15 5 5 40 9 78 9 43 0 73 5 82 13 7 7 37 14 66
16 30 1 56 6 57 12 2 5 30 9 63 9 44 0 61 4 65 15 4 10 21 15 54 15 27 0 50 4
52 9 2 6 24 11 51 12 31 2 47 7 47 16 0 8 13 13 39 13 22 0 41 5 43 11 2 6 25
13 51 16 26 3 47 10 47 14 0 5 18 9 40 9 29 0 40 4 40 15 0 10 10 15 31 15 17
0 28 4 24 10 -4 6 10 10 34 10 30 0 41 4 41 15 0 11 11 15 40 15 22 0 40 4 40
10 0 5 11 12 25 16 14 3 25 10 25 15 0 5 18 9 40 9 29 0 40 4 40 15 0 9 9 15
25 15 14 0 25 5 25 10 0 6 11 10 25 10 16 0 25 6 25 15 0 9 9 15 25 15 14 0
25 5 25 10 0 6 11 10 24 10 13 0 26 7 30 15 3 8 17 15 31 15 14 0 25 6 25 13
0 7 10 14 22 14 13 1 24 7 26 13 2 5 15 10 28 10 15 0 24 6 24 15 0 9 9 15 25
15 14 0 25 5 25 10 0 6 7 10 15 10 8 0 15 6 15 13 0 7 9 13 20 14 11 1 27 9
36 17 8 9 22 16 30 16 8 0 14 5 14 10 0 6 7 10 15 10 8 0 15 4 15 9 0 5 10 13
23 17 12 4 31 16 42 28 11 12 29 23 40 24 10 2 29 15 40 28 11 13 26 24 33 24
7 0 23 11 36 25 13 14 33 25 45 25 12 0 21 6 21 15 0 8 5 15 11 15 14 0 39 25
39 39 0 6 7 11 15 11 8 0 15 5 15 10 0 6 7 10 15 10 8 0 32 18 54 40 22 22 44
40 50 40 6 0 11 5 11 11 0 14 25 39 39 39 6 0 11 7 11 15 0 8 8 15 17 15 9 0
14 3 11 6 -8 7 28 44 42 44 6 0 10 5 10 11 0 14 25 39 39 39 6 0 11 7 11 15 0
8 7 15 16 15 8 0 12 5 9 10 -3 6 1 10 9 10 9 0 16 4 16 10 0 13 57 70 70 70 5
0 10 7 10 15 0 8 4 15 9 15 5 0 12 11 15 25 4 14 11 25 16 25 6 0 10 7 10 16
0 8 5 12 10 9 6 -3 10 1 10 9 0 9 7 16 15 16 13 0 20 18 16 43 0 4 6 7 14 7 8
0 15 4 15 10 0 15 33 50 42 44 4 -3 8 7 8 21 0 27 20 55 39 55 6 0 11 11 11
25 0 14 4 25 9 25 5 0 12 11 15 25 4 14 11 25 16 25 6 0 10 7 10 15 0 8 7 15
15 15 9 0 15 9 15 25 0 14 4 25 9 25 5 0 11 12 13 28 2 15 8 26 16 25 7 -2 12
8 12 27 0 17 5 30 10 30 6 0 10 9 10 20 0 10 6 23 14 27 8 4 16 22 17 38 2 17
8 33 13 37 5 3 11 17 13 29 2 13 8 26 13 29 5 3 10 20 12 38 1 18 8 32 15 32
8 0 13 14 13 40 0 22 5 40 10 40 6 0 10 18 10 40 0 29 4 40 15 40 11 0 15 12
15 49 0 27 4 51 9 53 6 2 20 98 21 151 0 5 5 5 10 2 9 -5 14 105 12 228 0 17
5 27 14 27 11 0 14 19 14 95 0 69 -3 95 -12 95 -19 0 -18 217 0 229 16 10 13
157 -3 154 -7 -1 -12 41 -14 110 -1 62 -7 115 -12 118 -5 3 -12 28 -16 55 -3
27 -9 51 -14 52 -5 2 -9 25 -9 52 0 33 -5 50 -15 54 -9 3 -15 19 -15 41 0 19
-4 35 -10 35 -5 0 -10 11 -10 25 0 16 -6 25 -15 25 -10 0 -15 11 -15 35 0 19
-4 35 -10 35 -5 0 -10 14 -10 30 0 20 -5 30 -15 30 -8 0 -15 9 -15 20 0 12
-11 31 -25 44 -14 13 -25 33 -25 45 0 12 -6 21 -15 21 -9 0 -15 9 -15 25 0 14
-4 25 -10 25 -5 0 -10 7 -10 16 0 8 -4 13 -9 10 -5 -3 -14 8 -20 24 -5 17 -15
30 -21 30 -6 0 -8 5 -5 10 3 6 -1 10 -9 10 -10 0 -16 9 -16 25 0 16 -6 25 -15
25 -8 0 -15 6 -15 13 0 7 -11 21 -25 31 -14 10 -25 27 -25 38 0 10 -7 21 -15
24 -8 4 -12 10 -9 15 3 5 -2 9 -10 9 -9 0 -16 7 -16 15 0 8 -5 15 -11 15 -14
0 -39 25 -39 39 0 6 -7 11 -15 11 -8 0 -15 7 -15 16 0 8 -4 12 -10 9 -5 -3
-10 1 -10 9 0 9 -7 16 -15 16 -8 0 -15 5 -15 11 0 14 -25 39 -39 39 -6 0 -11
5 -11 11 0 14 -25 39 -39 39 -6 0 -11 7 -11 15 0 8 -5 15 -10 15 -6 0 -21 11
-34 25 -13 14 -31 25 -40 25 -9 0 -16 7 -16 15 0 8 -5 15 -11 15 -7 0 -26 15
-43 34 -18 18 -42 37 -54 40 -12 4 -22 12 -22 17 0 5 -7 9 -15 9 -8 0 -15 7
-15 15 0 8 -7 15 -15 15 -8 0 -15 5 -15 10 0 6 -11 10 -25 10 -14 0 -25 5 -25
11 0 16 -25 37 -54 45 -14 3 -23 10 -20 15 3 5 -2 9 -10 9 -9 0 -16 4 -16 9 0
5 -10 13 -22 17 -13 4 -26 11 -29 16 -3 5 -16 10 -28 11 -17 1 -23 10 -28 39
-3 21 -9 38 -14 38 -5 0 -9 36 -9 80 0 59 -3 80 -13 80 -9 0 -14 16 -16 48 -1
26 -6 49 -12 50 -5 2 -9 21 -9 43 0 28 -4 39 -15 39 -9 0 -15 9 -15 25 0 14
-4 25 -10 25 -5 0 -12 11 -16 25 -3 14 -10 25 -15 25 -5 0 -9 11 -9 25 0 16
-6 25 -15 25 -8 0 -15 7 -15 15 0 8 -4 15 -10 15 -5 0 -10 11 -10 25 0 16 -6
25 -15 25 -8 0 -15 7 -15 15 0 8 -4 15 -10 15 -5 0 -10 7 -10 17 0 9 -18 33
-40 54 -22 21 -40 43 -40 49 0 6 -4 8 -10 5 -5 -3 -10 1 -10 9 0 9 -4 16 -9
16 -12 0 -71 59 -71 71 0 5 -4 9 -8 9 -5 0 -32 23 -61 50 -29 28 -59 50 -67
50 -8 0 -17 7 -20 15 -4 8 -10 15 -16 15 -5 0 -16 7 -25 15 -8 8 -19 13 -24
10 -5 -4 -9 1 -9 9 0 9 -7 16 -15 16 -8 0 -15 5 -15 10 0 6 -11 10 -25 10 -16
0 -25 6 -25 15 0 9 -9 15 -25 15 -14 0 -25 4 -25 9 0 5 -14 12 -30 16 -17 4
-28 11 -24 16 3 5 -4 9 -15 9 -11 0 -26 7 -35 15 -8 8 -24 15 -35 15 -12 0
-21 5 -21 10 0 6 -11 10 -25 10 -16 0 -25 6 -25 15 0 11 -11 15 -39 15 -22 0
-41 4 -43 9 -1 6 -24 11 -50 12 -32 2 -48 7 -48 16 0 9 -16 13 -54 13 -30 0
-56 4 -58 10 -1 5 -52 12 -113 15 -60 3 -111 10 -113 15 -5 12 -149 13 -154 1z
m360 -100 c2 -6 25 -11 53 -11 35 0 51 -4 55 -15 4 -10 21 -15 54 -15 27 0 50
-4 52 -10 2 -5 18 -10 35 -12 18 -1 35 -8 37 -15 3 -7 16 -13 30 -13 13 0 26
-4 28 -9 2 -6 16 -12 33 -15 16 -3 31 -10 33 -16 2 -5 15 -10 28 -10 14 0 27
-7 30 -15 4 -8 17 -15 31 -15 13 0 22 -4 19 -9 -3 -5 4 -11 15 -14 12 -3 18
-10 14 -16 -4 -7 5 -11 24 -11 17 0 31 -4 31 -10 0 -5 11 -12 25 -16 14 -3 22
-10 19 -15 -3 -5 2 -9 10 -9 9 0 16 -7 16 -15 0 -8 7 -15 15 -15 8 0 15 -4 15
-9 0 -5 11 -12 25 -15 14 -4 25 -11 25 -16 0 -6 5 -10 11 -10 14 0 39 -25 39
-39 0 -6 7 -11 15 -11 8 0 15 -6 15 -13 0 -8 11 -20 25 -27 14 -7 25 -19 25
-27 0 -7 5 -13 11 -13 14 0 39 -25 39 -39 0 -6 7 -11 15 -11 8 0 15 -7 15 -15
0 -8 4 -15 9 -15 5 0 13 -10 17 -22 3 -12 22 -36 40 -54 19 -17 34 -41 34 -53
0 -12 6 -21 15 -21 9 0 15 -9 15 -25 0 -14 5 -25 10 -25 6 0 10 -11 10 -25 0
-16 6 -25 15 -25 9 0 15 -10 15 -26 0 -14 7 -32 15 -40 8 -9 15 -26 15 -40 0
-13 5 -24 10 -24 6 0 10 -16 10 -36 0 -19 7 -42 15 -50 12 -13 15 -50 15 -210
0 -164 -2 -196 -15 -200 -9 -4 -15 -19 -15 -39 0 -19 -4 -37 -10 -40 -5 -3
-10 -15 -10 -26 0 -11 -7 -22 -15 -25 -8 -4 -15 -16 -15 -29 0 -13 -7 -25 -15
-29 -8 -3 -15 -15 -15 -26 0 -11 -4 -20 -10 -20 -5 0 -10 -7 -10 -15 0 -8 -7
-15 -15 -15 -8 0 -15 -9 -15 -20 0 -23 -30 -61 -42 -54 -4 3 -8 -2 -8 -10 0
-9 -7 -16 -15 -16 -8 0 -15 -5 -15 -11 0 -17 -32 -38 -57 -39 -13 0 -23 -6
-23 -13 0 -7 -14 -14 -32 -15 -18 -2 -34 -7 -36 -12 -2 -6 -10 -10 -18 -10 -8
0 -14 -7 -14 -15 0 -9 -9 -15 -24 -15 -13 0 -26 -7 -30 -15 -3 -8 -16 -15 -30
-15 -14 0 -31 7 -40 15 -8 8 -24 15 -35 15 -12 0 -21 6 -21 13 0 7 -10 13 -22
14 -11 1 -24 6 -27 11 -3 6 -17 12 -31 14 -14 2 -24 9 -22 16 1 8 -13 12 -46
12 -26 0 -52 4 -57 9 -6 5 -48 11 -95 14 -46 3 -86 10 -88 16 -5 15 -129 14
-134 -1 -3 -7 -39 -13 -99 -16 -51 -2 -95 -8 -97 -13 -2 -5 -23 -9 -46 -9 -41
0 -42 0 -44 38 -2 20 -7 39 -12 40 -6 2 -10 19 -10 37 0 20 -6 35 -15 39 -8 3
-15 17 -15 31 0 14 -4 25 -10 25 -5 0 -10 11 -10 25 0 16 -6 25 -15 25 -8 0
-15 9 -15 20 0 21 -52 80 -71 80 -6 0 -7 5 -4 10 3 6 -1 13 -9 16 -9 3 -16 17
-16 30 0 17 -6 24 -20 24 -11 0 -42 23 -70 50 -28 28 -59 50 -70 50 -11 0 -20
7 -20 15 0 9 -9 15 -24 15 -13 0 -26 5 -28 10 -2 6 -13 12 -26 13 -12 0 -22 7
-22 14 0 7 -11 13 -24 13 -14 0 -28 5 -31 10 -3 6 -20 10 -36 10 -17 0 -32 6
-35 15 -5 11 -22 15 -70 15 -61 0 -64 1 -64 24 0 13 4 26 9 28 6 2 11 31 12
66 2 44 6 62 16 62 20 0 18 106 -2 114 -11 4 -15 21 -15 60 0 30 -4 58 -10 61
-5 3 -10 17 -10 30 0 13 -7 30 -15 39 -8 8 -15 24 -15 35 0 12 -4 21 -10 21
-5 0 -12 11 -16 25 -3 14 -10 25 -15 25 -5 0 -9 7 -9 15 0 8 -7 15 -15 15 -9
0 -15 9 -15 21 0 23 -82 109 -104 109 -14 0 -26 21 -26 46 0 8 7 14 15 14 9 0
15 9 15 25 0 16 6 25 16 25 8 0 12 5 9 10 -3 6 1 10 9 10 9 0 16 7 16 15 0 8
6 15 13 15 8 0 20 11 27 25 7 14 19 25 27 25 7 0 13 7 13 15 0 9 9 15 25 15
14 0 25 5 25 10 0 6 7 10 15 10 8 0 15 7 15 15 0 9 9 15 24 15 13 0 26 7 30
15 3 8 15 15 26 15 11 0 20 5 20 10 0 6 11 10 25 10 16 0 25 6 25 15 0 9 9 15
25 15 14 0 25 5 25 10 0 6 18 10 40 10 29 0 40 4 40 15 0 12 13 15 55 15 30 0
55 4 55 9 0 13 60 16 315 15 152 -1 220 -5 223 -13z m-1422 -361 c5 -5 24 -10
43 -12 18 -1 36 -8 38 -15 3 -7 16 -13 29 -13 15 0 24 -6 24 -15 0 -9 9 -15
25 -15 14 0 25 -4 25 -10 0 -5 7 -10 15 -10 8 0 15 -5 15 -11 0 -14 25 -39 39
-39 6 0 11 -7 11 -15 0 -8 5 -15 11 -15 14 0 39 -25 39 -39 0 -6 7 -11 15 -11
8 0 15 -7 15 -15 0 -8 5 -15 10 -15 6 0 10 -11 10 -25 0 -16 6 -25 15 -25 9 0
15 -9 15 -24 0 -13 4 -26 10 -28 5 -1 10 -20 12 -40 1 -23 7 -38 15 -38 20 0
19 -313 -2 -334 -8 -8 -15 -24 -15 -34 0 -11 -4 -22 -9 -24 -5 -1 -11 -19 -14
-38 -2 -19 -9 -34 -16 -33 -6 2 -11 -4 -11 -12 0 -8 -4 -15 -9 -15 -5 0 -12
-11 -15 -25 -4 -14 -11 -25 -16 -25 -6 0 -10 -7 -10 -15 0 -8 -7 -15 -15 -15
-8 0 -15 -5 -15 -11 0 -14 -25 -39 -39 -39 -6 0 -11 -7 -11 -15 0 -9 -9 -15
-25 -15 -14 0 -25 -5 -25 -11 0 -17 -32 -38 -57 -39 -14 0 -23 -6 -23 -15 0
-9 -9 -15 -25 -15 -14 0 -25 -4 -25 -10 0 -5 -18 -10 -40 -10 -29 0 -40 -4
-40 -15 0 -14 -24 -16 -180 -15 -148 1 -180 4 -180 16 0 10 -12 14 -39 14 -22
0 -41 5 -43 10 -2 6 -13 12 -26 13 -12 0 -22 7 -22 14 0 7 -11 13 -24 13 -13
0 -27 7 -30 16 -3 8 -10 12 -16 9 -5 -3 -10 -2 -10 4 0 14 -56 71 -70 71 -5 0
-10 5 -10 10 0 6 -18 28 -40 50 -22 22 -40 47 -40 55 0 8 -4 15 -10 15 -5 0
-10 11 -10 24 0 13 -7 26 -15 30 -9 3 -15 19 -15 41 0 19 -4 35 -10 35 -6 0
-10 63 -10 170 0 107 4 170 10 170 6 0 10 11 10 25 0 16 6 25 15 25 11 0 15
11 15 36 0 26 7 43 25 60 14 13 25 29 25 37 0 8 11 23 25 33 14 10 25 24 25
31 0 7 7 13 15 13 8 0 15 5 15 11 0 15 30 38 50 39 8 0 24 10 35 23 25 27 80
57 105 57 10 0 20 7 24 15 3 9 18 15 35 15 16 0 33 5 36 10 8 13 348 13 361 0z
m-876 -391 c0 -13 -45 -22 -90 -17 -28 2 -40 0 -40 -9 0 -9 -19 -13 -65 -13
-51 0 -65 -3 -65 -15 0 -11 -12 -15 -49 -15 -27 0 -51 -5 -53 -11 -2 -6 -25
-13 -51 -16 -26 -3 -50 -10 -53 -14 -3 -5 -20 -9 -39 -9 -18 0 -35 -6 -38 -13
-2 -7 -20 -14 -38 -15 -19 -1 -35 -7 -37 -12 -2 -6 -21 -10 -42 -10 -24 0 -40
-5 -44 -15 -3 -9 -19 -15 -41 -15 -19 0 -35 -4 -35 -10 0 -5 -11 -10 -24 -10
-14 0 -31 -7 -40 -15 -8 -8 -30 -15 -49 -15 -22 0 -37 -6 -41 -15 -3 -8 -15
-15 -26 -15 -11 0 -20 -4 -20 -10 0 -5 -18 -10 -40 -10 -29 0 -40 -4 -40 -15
0 -10 -10 -15 -31 -15 -27 0 -30 3 -27 28 2 20 9 28 28 30 14 2 29 10 33 18 4
8 21 14 37 14 16 0 32 5 35 10 3 6 22 10 41 10 24 0 34 5 34 15 0 11 11 15 40
15 22 0 40 5 40 10 0 6 16 10 35 10 22 0 38 6 41 15 4 9 19 15 39 15 18 0 35
5 37 11 2 5 19 12 38 15 19 3 39 10 44 15 6 5 32 9 58 9 33 0 48 4 48 13 0 9
16 14 48 16 26 1 49 6 50 12 2 5 28 9 58 9 31 0 53 4 50 9 -9 14 20 21 80 21
32 0 53 4 49 9 -3 6 16 11 42 13 62 4 113 -2 113 -13z m-30 -102 c0 -9 -11
-13 -32 -11 -51 2 -54 4 -38 14 22 14 70 12 70 -3z m-150 -27 c0 -5 -7 -10
-15 -10 -8 0 -15 5 -15 10 0 6 7 10 15 10 8 0 15 -4 15 -10z m-114 -37 c-10
-10 -19 5 -10 18 6 11 8 11 12 0 2 -7 1 -15 -2 -18z m-965 -24 c10 -10 19 -25
19 -33 0 -8 7 -16 15 -20 8 -3 15 -17 15 -31 0 -14 5 -25 10 -25 6 0 10 -22
10 -50 0 -38 4 -50 15 -50 11 0 15 -11 15 -40 0 -22 5 -40 10 -40 6 0 10 -16
10 -35 0 -22 6 -38 15 -41 10 -4 15 -21 15 -54 0 -28 5 -50 12 -52 21 -7 -2
-28 -32 -28 -15 0 -30 -6 -33 -13 -2 -7 -20 -14 -38 -15 -19 -1 -35 -7 -37
-12 -2 -6 -15 -10 -28 -10 -15 0 -24 -6 -24 -15 0 -8 -7 -15 -15 -15 -8 0 -15
-4 -15 -10 0 -5 -11 -10 -25 -10 -16 0 -25 -6 -25 -15 0 -8 -5 -15 -11 -15
-14 0 -39 -25 -39 -39 0 -6 -5 -11 -11 -11 -14 0 -39 -25 -39 -39 0 -6 -7 -11
-15 -11 -8 0 -15 -7 -15 -15 0 -8 -4 -15 -10 -15 -5 0 -12 -11 -16 -25 -5 -20
-13 -25 -36 -25 -22 0 -42 12 -80 50 -28 28 -54 50 -59 50 -5 0 -9 7 -9 15 0
8 -7 15 -15 15 -8 0 -15 3 -15 8 0 4 -16 16 -35 26 -19 11 -35 25 -35 33 0 7
-5 13 -11 13 -19 0 -69 58 -69 79 0 12 -6 21 -15 21 -8 0 -15 6 -15 14 0 8 -5
16 -10 18 -6 2 -11 28 -12 58 -2 68 20 100 69 100 18 0 33 5 33 10 0 6 22 10
49 10 28 0 53 -4 56 -10 3 -5 17 -10 31 -10 15 0 24 -6 24 -15 0 -9 9 -15 21
-15 12 0 32 -11 45 -25 14 -16 34 -25 52 -25 46 0 55 30 57 189 1 116 4 141
18 156 10 9 15 21 12 26 -3 4 6 11 20 15 14 3 25 10 25 14 0 25 144 16 171
-11z m894 11 c6 -10 -7 -14 -33 -11 -7 1 -15 -5 -18 -14 -3 -8 -17 -15 -30
-15 -13 0 -24 -5 -24 -11 0 -15 -22 -35 -48 -43 -12 -4 -22 -12 -22 -17 0 -5
-5 -9 -11 -9 -13 0 -149 -138 -149 -151 0 -5 -4 -9 -10 -9 -5 0 -12 -11 -16
-25 -3 -14 -10 -22 -15 -19 -5 3 -9 -2 -9 -10 0 -9 -4 -16 -9 -16 -5 0 -12
-11 -15 -25 -4 -14 -11 -25 -16 -25 -6 0 -10 -11 -10 -24 0 -13 -7 -26 -15
-30 -8 -3 -15 -16 -15 -29 0 -20 -5 -23 -32 -23 -18 1 -37 7 -41 13 -5 8 -29
13 -57 13 -38 0 -50 4 -50 15 0 8 -6 15 -13 15 -9 0 -14 16 -16 47 -1 26 -6
50 -12 53 -5 4 -11 21 -13 39 -2 18 -8 36 -14 40 -21 13 -6 46 22 49 14 2 24
7 21 12 -3 4 13 11 35 15 22 4 40 11 40 16 0 5 14 9 30 9 17 0 29 5 28 11 -2
7 13 14 32 16 19 3 37 9 38 14 2 5 14 9 27 9 12 0 25 6 28 13 3 8 20 14 38 15
17 0 35 5 38 11 4 5 22 13 41 16 19 3 37 10 38 16 2 5 26 9 53 9 27 0 49 4 49
10 0 5 18 13 40 16 22 4 40 10 40 15 0 12 67 11 75 -1z m315 -54 c0 -8 5 -16
10 -18 6 -2 13 -36 17 -76 3 -39 10 -72 14 -72 5 0 9 -18 9 -40 0 -29 4 -40
15 -40 9 0 15 -9 15 -25 0 -14 5 -25 10 -25 6 0 10 -11 10 -25 0 -16 6 -25 15
-25 8 0 15 -6 15 -13 0 -7 11 -21 25 -31 14 -10 25 -27 25 -37 0 -11 7 -19 15
-19 8 0 15 -5 15 -11 0 -15 22 -35 48 -43 12 -4 22 -12 22 -17 0 -5 7 -9 15
-9 8 0 15 -7 15 -15 0 -9 9 -15 25 -15 14 0 25 -4 25 -10 0 -5 7 -10 15 -10 8
0 15 -7 15 -15 0 -10 11 -15 35 -15 19 0 35 -4 35 -9 0 -5 18 -11 40 -15 22
-3 40 -11 40 -16 0 -6 29 -10 65 -10 49 0 65 -3 65 -14 0 -8 7 -16 15 -20 13
-5 15 -40 15 -238 0 -232 -4 -283 -21 -272 -5 3 -9 -20 -9 -50 0 -31 -4 -56
-9 -56 -5 0 -11 -18 -15 -40 -3 -22 -11 -40 -16 -40 -6 0 -10 -11 -10 -25 0
-14 -4 -25 -10 -25 -5 0 -12 -11 -16 -25 -3 -14 -10 -25 -14 -25 -5 0 -10 -12
-12 -27 -2 -16 -8 -27 -15 -26 -8 2 -13 -7 -13 -22 0 -14 -4 -25 -10 -25 -5 0
-10 -7 -10 -15 0 -8 -7 -15 -15 -15 -8 0 -15 -7 -15 -15 0 -8 -4 -15 -9 -15
-5 0 -13 -10 -17 -22 -8 -26 -28 -48 -43 -48 -6 0 -11 -7 -11 -15 0 -8 -7 -15
-16 -15 -8 0 -13 -4 -10 -9 3 -5 -5 -12 -19 -15 -14 -4 -25 -11 -25 -16 0 -6
-7 -10 -15 -10 -8 0 -15 -7 -15 -15 0 -8 -7 -15 -15 -15 -8 0 -15 -4 -15 -10
0 -27 -50 10 -53 39 -1 12 -7 21 -14 21 -7 0 -13 7 -13 15 0 8 -4 15 -9 15 -5
0 -12 11 -15 25 -4 14 -11 25 -16 25 -6 0 -10 11 -10 25 0 16 -6 25 -15 25 -9
0 -15 9 -15 25 0 14 -4 25 -10 25 -5 0 -10 14 -10 30 0 17 -5 30 -11 30 -15 0
-39 26 -39 43 0 8 -7 20 -15 27 -8 7 -15 23 -15 35 0 13 -7 25 -15 29 -8 3
-15 15 -15 26 0 11 -4 20 -10 20 -5 0 -10 11 -10 25 0 16 -6 25 -15 25 -8 0
-15 7 -15 15 0 8 -4 15 -10 15 -5 0 -10 9 -10 20 0 11 -7 23 -15 26 -8 4 -15
16 -15 29 0 13 -7 25 -15 29 -8 3 -15 15 -15 26 0 11 -4 20 -10 20 -5 0 -10
11 -10 25 0 16 -6 25 -15 25 -9 0 -15 9 -15 25 0 14 -4 25 -10 25 -5 0 -10 6
-10 14 0 8 -7 16 -15 20 -8 3 -15 15 -15 26 0 11 -4 20 -9 20 -5 0 -12 11 -15
25 -4 14 -11 25 -16 25 -6 0 -10 11 -10 24 0 13 -7 26 -15 30 -8 3 -15 17 -15
31 0 15 -4 24 -10 20 -6 -4 -10 7 -10 24 0 17 -5 31 -11 31 -14 0 -39 25 -39
39 0 6 -7 11 -15 11 -8 0 -15 5 -15 11 0 14 -25 39 -39 39 -6 0 -11 7 -11 15
0 8 -5 15 -11 15 -14 0 -39 25 -39 39 0 6 -11 11 -25 11 -14 0 -25 5 -25 10 0
6 -7 10 -15 10 -8 0 -15 7 -15 15 0 9 -9 15 -25 15 -14 0 -25 4 -25 9 0 5 -13
11 -28 14 -22 5 -28 11 -27 28 1 13 7 25 13 27 7 2 12 15 12 28 0 15 6 24 15
24 9 0 15 9 15 25 0 14 5 25 10 25 6 0 10 7 10 15 0 8 7 15 15 15 8 0 15 7 15
15 0 8 4 15 9 15 5 0 12 9 16 19 8 25 81 98 106 106 10 4 19 11 19 16 0 5 7 9
15 9 8 0 15 7 15 15 0 8 7 15 15 15 8 0 15 4 15 9 0 5 11 12 25 15 14 4 25 11
25 16 0 6 9 10 21 10 11 0 27 7 35 15 9 8 29 15 45 15 16 0 29 5 29 10 0 6 42
10 105 10 84 0 105 -3 105 -14z m1520 -281 c0 -11 11 -15 39 -15 22 0 41 -4
43 -10 2 -5 18 -11 37 -12 18 -1 36 -8 38 -15 3 -7 14 -13 24 -13 11 0 22 -7
25 -15 4 -8 12 -15 20 -15 8 0 14 -4 14 -10 0 -5 8 -10 19 -10 10 0 27 -11 37
-25 10 -14 24 -25 31 -25 7 0 13 -7 13 -15 0 -8 5 -15 11 -15 14 0 39 -25 39
-39 0 -6 7 -11 15 -11 8 0 15 -5 15 -11 0 -7 11 -22 25 -35 14 -13 25 -30 25
-39 0 -8 4 -15 9 -15 5 0 12 -13 16 -30 4 -16 11 -30 16 -30 5 0 9 -11 9 -25
0 -16 6 -25 15 -25 11 0 15 -11 15 -39 0 -22 5 -41 10 -43 14 -4 14 -382 0
-386 -5 -2 -10 -19 -10 -38 0 -24 -5 -34 -15 -34 -10 0 -15 -10 -15 -30 0 -16
-4 -30 -10 -30 -5 0 -10 -9 -10 -20 0 -11 -7 -23 -15 -26 -8 -4 -15 -17 -15
-30 0 -15 -6 -24 -15 -24 -8 0 -15 -5 -15 -11 0 -14 -25 -39 -39 -39 -6 0 -11
-9 -11 -20 0 -23 -48 -75 -79 -85 -11 -3 -21 -11 -21 -16 0 -5 -7 -9 -15 -9
-8 0 -15 -7 -15 -15 0 -8 -7 -15 -16 -15 -8 0 -12 -4 -9 -10 4 -6 -5 -10 -20
-10 -14 0 -28 -7 -31 -15 -4 -8 -15 -15 -26 -15 -11 0 -26 -7 -34 -15 -9 -8
-26 -15 -40 -15 -13 0 -24 -4 -24 -10 0 -5 -18 -10 -39 -10 -25 0 -41 -5 -45
-15 -8 -22 -387 -22 -410 0 -8 8 -28 15 -44 15 -17 0 -32 4 -34 10 -1 5 -13
11 -26 13 -13 2 -27 9 -31 16 -4 6 -18 13 -29 14 -12 1 -22 7 -22 14 0 7 -7
13 -15 13 -8 0 -15 5 -15 10 0 6 -9 10 -20 10 -11 0 -23 7 -26 15 -4 8 -13 15
-21 15 -8 0 -11 5 -8 10 3 6 -1 10 -9 10 -9 0 -16 7 -16 15 0 8 -7 15 -15 15
-8 0 -15 5 -15 11 0 14 -25 39 -39 39 -6 0 -11 6 -11 14 0 8 -6 16 -12 19 -10
4 -10 7 0 18 6 7 12 28 12 46 0 21 6 36 15 39 9 4 15 19 15 39 0 18 4 35 9 37
7 2 18 54 20 101 1 5 6 5 11 2 6 -4 10 28 10 90 0 62 4 94 10 90 14 -8 13 118
0 131 -7 7 -10 54 -8 120 l3 109 70 3 c48 2 72 8 78 18 5 8 23 14 42 14 19 0
35 5 35 10 0 6 14 10 30 10 19 0 29 5 28 13 -2 7 9 13 25 15 15 2 25 8 22 13
-4 5 0 9 8 9 8 0 17 7 21 15 3 8 13 15 22 15 9 0 38 23 64 50 26 28 53 50 59
50 6 0 11 5 11 11 0 14 25 39 39 39 6 0 11 14 11 30 0 17 4 30 8 30 5 0 14 11
20 25 11 23 17 25 82 25 56 0 70 -3 70 -15z m2205 -92 c25 -16 45 -34 45 -40
0 -7 11 -13 25 -13 14 0 25 -4 25 -10 0 -5 7 -10 15 -10 8 0 15 -7 15 -15 0
-9 9 -15 23 -15 13 0 36 -16 57 -40 19 -22 43 -40 53 -40 9 0 17 -4 17 -10 0
-5 7 -10 15 -10 8 0 15 -7 15 -15 0 -8 5 -15 11 -15 14 0 39 -25 39 -39 0 -6
7 -11 15 -11 8 0 15 -4 15 -10 0 -5 11 -12 24 -16 13 -3 29 -16 36 -30 8 -13
17 -24 22 -24 12 0 148 -137 148 -150 0 -5 5 -9 11 -7 6 1 13 -6 14 -15 2 -10
15 -28 29 -41 14 -13 26 -29 26 -36 0 -6 5 -11 11 -11 14 0 39 -25 39 -39 0
-6 4 -11 9 -11 5 0 13 -10 17 -22 4 -13 17 -33 30 -45 13 -12 24 -31 24 -43 0
-11 5 -20 11 -20 16 0 39 -26 39 -45 0 -9 11 -26 25 -39 14 -13 25 -33 25 -45
0 -12 6 -21 15 -21 9 0 15 -9 15 -25 0 -14 4 -25 9 -25 5 0 12 -13 16 -30 4
-16 11 -30 16 -30 5 0 9 -15 9 -34 0 -21 6 -36 15 -40 8 -3 15 -17 15 -31 0
-14 5 -25 10 -25 6 0 10 -15 10 -34 0 -21 6 -36 15 -40 11 -4 15 -20 15 -55 0
-27 4 -51 9 -53 6 -1 11 -24 12 -50 2 -32 7 -48 16 -48 10 0 13 -56 13 -284 0
-243 -2 -285 -15 -290 -11 -4 -15 -20 -15 -56 0 -27 -4 -50 -10 -50 -5 0 -10
-20 -10 -45 0 -31 -5 -47 -15 -51 -10 -4 -15 -20 -15 -45 0 -21 -4 -39 -10
-39 -5 0 -10 -9 -10 -20 0 -11 -7 -23 -15 -26 -10 -4 -15 -20 -15 -46 0 -24
-4 -37 -10 -33 -6 4 -13 -7 -16 -24 -4 -17 -10 -31 -15 -31 -5 0 -9 -11 -9
-25 0 -16 -6 -25 -15 -25 -9 0 -15 -9 -15 -21 0 -12 -11 -32 -25 -45 -14 -13
-25 -30 -25 -38 0 -20 -31 -57 -42 -50 -4 3 -8 -6 -8 -19 0 -14 -10 -32 -24
-43 -14 -10 -27 -28 -31 -41 -3 -13 -10 -23 -15 -23 -6 0 -10 -5 -10 -10 0 -6
-22 -33 -50 -60 -27 -27 -50 -54 -50 -59 0 -17 -228 -241 -244 -241 -9 0 -16
-4 -16 -10 0 -5 -7 -10 -15 -10 -8 0 -15 -5 -15 -11 0 -14 -25 -39 -39 -39 -6
0 -11 -7 -11 -15 0 -8 -7 -15 -15 -15 -8 0 -15 -4 -15 -9 0 -5 -10 -13 -22
-17 -12 -3 -36 -22 -54 -40 -17 -19 -41 -34 -53 -34 -12 0 -21 -6 -21 -15 0
-8 -7 -15 -15 -15 -8 0 -15 -4 -15 -10 0 -5 -9 -10 -20 -10 -11 0 -23 -6 -26
-14 -3 -7 -21 -22 -40 -32 -19 -10 -34 -22 -34 -26 0 -5 -11 -8 -24 -8 -13 0
-31 -11 -42 -25 -10 -14 -29 -25 -41 -25 -14 0 -23 -6 -23 -15 0 -8 -9 -15
-19 -15 -21 0 -84 -30 -89 -42 -2 -5 -15 -8 -28 -8 -15 0 -24 -6 -24 -15 0 -9
-9 -15 -25 -15 -14 0 -25 -4 -25 -10 0 -5 -11 -10 -25 -10 -16 0 -25 -6 -25
-15 0 -9 -9 -15 -24 -15 -13 0 -26 -4 -28 -10 -1 -5 -14 -11 -27 -13 -14 -2
-27 -9 -29 -15 -2 -7 -13 -12 -24 -12 -10 0 -26 -7 -34 -15 -9 -8 -26 -15 -40
-15 -13 0 -24 -4 -24 -10 0 -5 -13 -10 -30 -10 -20 0 -30 -5 -30 -15 0 -10
-11 -15 -35 -15 -19 0 -35 -4 -35 -10 0 -5 -18 -10 -40 -10 -29 0 -40 -4 -40
-15 0 -10 -10 -15 -31 -15 -17 0 -28 -4 -24 -10 3 -6 0 -10 -7 -11 -50 -2 -94
-11 -96 -19 -2 -6 -19 -10 -37 -10 -20 0 -35 -6 -39 -15 -3 -9 -19 -15 -41
-15 -19 0 -35 -4 -35 -10 0 -5 -25 -10 -55 -10 -42 0 -55 -3 -55 -15 0 -11
-12 -15 -49 -15 -27 0 -51 -4 -53 -9 -1 -6 -24 -11 -50 -12 -28 -2 -49 -8 -52
-16 -4 -9 -25 -13 -64 -13 -32 0 -63 -5 -69 -11 -6 -6 -43 -14 -82 -17 -39 -2
-71 -9 -71 -13 0 -5 -39 -9 -86 -9 -59 0 -90 -4 -99 -14 -10 -10 -44 -14 -117
-15 -57 -1 -104 -6 -106 -11 -5 -13 -1089 -13 -1094 0 -1 5 -49 10 -106 11
-72 1 -107 6 -117 15 -9 10 -40 14 -99 14 -47 0 -86 4 -86 9 0 4 -32 11 -71
13 -39 3 -76 11 -82 17 -6 6 -35 11 -63 11 -29 0 -58 6 -66 13 -7 7 -33 14
-58 16 -25 2 -47 7 -50 11 -3 5 -28 10 -55 12 -33 2 -49 7 -48 16 2 8 -12 12
-46 12 -28 0 -53 4 -56 10 -3 6 -22 10 -41 10 -22 0 -37 6 -40 15 -4 9 -19 15
-39 15 -18 0 -35 4 -37 10 -1 5 -18 11 -37 12 -18 1 -36 8 -38 15 -3 8 -22 13
-44 13 -28 0 -39 4 -39 15 0 11 -11 15 -40 15 -22 0 -40 4 -40 9 0 6 -17 11
-37 13 -24 2 -37 8 -36 15 2 8 -8 13 -27 13 -17 0 -30 5 -30 10 0 6 -11 10
-24 10 -14 0 -31 7 -40 15 -8 8 -24 15 -34 15 -11 0 -22 5 -24 12 -2 6 -15 13
-29 15 -13 2 -25 8 -27 13 -2 6 -15 10 -28 10 -15 0 -24 6 -24 15 0 9 -9 15
-25 15 -14 0 -25 5 -25 10 0 6 -11 10 -25 10 -16 0 -25 6 -25 15 0 9 -9 15
-25 15 -14 0 -25 4 -25 9 0 5 -13 12 -30 16 -16 4 -30 11 -30 16 0 5 -11 9
-25 9 -16 0 -25 6 -25 15 0 9 -9 15 -23 15 -12 0 -31 11 -41 25 -11 14 -29 25
-42 25 -13 0 -24 3 -24 8 0 4 -15 16 -34 26 -19 10 -37 25 -40 32 -3 8 -15 14
-26 14 -11 0 -20 5 -20 10 0 6 -7 10 -15 10 -8 0 -15 7 -15 15 0 8 -9 15 -20
15 -12 0 -37 16 -57 35 -19 19 -44 37 -54 40 -11 4 -19 11 -19 16 0 5 -7 9
-15 9 -8 0 -15 7 -15 15 0 8 -5 15 -11 15 -6 0 -25 16 -43 35 -19 19 -38 35
-45 35 -6 0 -36 25 -66 55 -31 30 -60 55 -65 55 -6 0 -10 7 -10 16 0 8 -4 12
-10 9 -5 -3 -10 1 -10 9 0 9 -7 16 -15 16 -8 0 -15 7 -15 15 0 8 -4 15 -10 15
-5 0 -10 7 -10 15 0 8 -6 14 -12 12 -7 -1 -12 4 -11 11 2 6 -4 12 -12 12 -8 0
-15 7 -15 15 0 8 -18 33 -40 55 -22 22 -40 45 -40 50 0 6 -6 10 -13 10 -7 0
-13 9 -14 19 -2 23 -33 62 -45 55 -4 -3 -8 6 -8 19 0 14 -10 32 -25 43 -14 10
-25 27 -25 37 0 10 -11 28 -25 41 -14 13 -25 32 -25 44 0 11 -7 22 -15 26 -8
3 -15 14 -15 25 0 10 -7 21 -15 25 -8 3 -15 9 -14 13 4 23 -2 43 -11 38 -6 -4
-10 10 -10 33 0 26 -5 42 -15 46 -8 3 -15 14 -15 25 0 11 -5 23 -10 26 -6 3
-10 21 -10 40 0 20 -6 35 -15 39 -10 4 -15 20 -15 50 0 24 -4 46 -9 48 -6 2
-13 26 -17 53 -3 28 -10 53 -15 56 -5 3 -8 121 -7 274 l3 268 23 3 c13 3 25
-2 28 -11 4 -8 17 -15 30 -15 15 0 24 -6 24 -15 0 -8 5 -15 10 -15 6 0 10 -18
10 -40 0 -22 -4 -40 -10 -40 -12 0 -13 -47 -1 -52 5 -1 12 -41 16 -88 4 -47
11 -86 16 -88 5 -2 9 -19 9 -37 0 -18 5 -35 12 -37 6 -2 13 -15 15 -29 2 -13
8 -25 13 -27 6 -2 10 -15 10 -28 0 -15 6 -24 15 -24 9 0 15 -9 15 -21 0 -12
15 -36 34 -53 18 -18 37 -42 40 -54 4 -12 12 -22 17 -22 5 0 9 -7 9 -15 0 -8
7 -15 15 -15 8 0 15 -4 15 -9 0 -5 10 -13 23 -17 12 -3 37 -22 55 -40 18 -19
42 -34 52 -34 15 0 20 -7 20 -25 0 -16 6 -25 15 -25 8 0 15 -7 15 -15 0 -8 4
-15 9 -15 5 0 12 -11 15 -25 4 -14 11 -25 16 -25 6 0 10 -7 10 -15 0 -8 6 -15
13 -15 7 0 13 -9 14 -20 1 -11 18 -35 37 -54 20 -18 36 -38 36 -45 0 -6 7 -11
15 -11 9 0 15 -9 15 -25 0 -14 5 -25 11 -25 14 0 39 -25 39 -39 0 -6 5 -11 11
-11 14 0 39 -25 39 -39 0 -6 7 -11 15 -11 8 0 15 -6 15 -13 0 -8 11 -20 25
-27 14 -7 25 -19 25 -27 0 -7 5 -13 11 -13 14 0 39 -25 39 -39 0 -6 9 -11 20
-11 11 0 43 -23 71 -51 27 -28 59 -51 70 -52 10 -1 19 -7 19 -14 0 -7 6 -13
13 -13 7 0 21 -11 31 -25 10 -14 27 -25 36 -25 9 0 26 -11 36 -25 10 -14 29
-25 41 -25 14 0 23 -6 23 -15 0 -8 7 -15 15 -15 8 0 15 -4 15 -10 0 -5 11 -10
25 -10 16 0 25 -6 25 -15 0 -9 9 -15 21 -15 12 0 32 -11 45 -25 13 -14 32 -25
44 -25 11 0 20 -7 20 -15 0 -9 9 -15 25 -15 14 0 25 -4 25 -10 0 -5 11 -10 25
-10 16 0 25 -6 25 -15 0 -8 7 -15 17 -15 22 0 93 -32 93 -42 0 -4 11 -8 25 -8
14 0 25 -4 25 -10 0 -5 11 -12 25 -16 14 -3 25 -10 25 -15 0 -5 18 -9 40 -9
29 0 40 -4 40 -15 0 -9 9 -15 25 -15 14 0 25 -4 25 -10 0 -5 16 -10 35 -10 22
0 38 -6 41 -15 4 -9 19 -15 40 -15 19 0 34 -4 34 -9 0 -5 18 -12 40 -16 22 -4
40 -11 40 -16 0 -5 16 -9 35 -9 22 0 38 -6 41 -15 4 -10 20 -15 45 -15 21 0
39 -4 39 -10 0 -5 16 -10 35 -10 22 0 38 -6 41 -15 4 -10 21 -15 54 -15 27 0
50 -4 52 -10 1 -5 18 -11 37 -12 18 -1 36 -8 38 -15 3 -7 18 -13 35 -13 16 0
36 -7 44 -15 9 -8 33 -15 54 -15 21 0 42 -4 45 -10 4 -6 62 -10 141 -10 110 0
136 -3 140 -15 5 -12 27 -15 111 -15 67 0 102 -4 98 -10 -4 -6 41 -10 127 -10
182 -1 311 -10 321 -24 6 -8 10 -8 14 2 6 14 33 16 33 2 0 -5 23 -10 50 -10
28 0 50 5 50 10 0 14 27 12 34 -2 5 -10 7 -10 12 0 7 16 31 16 37 0 4 -10 8
-10 15 1 8 10 56 15 213 19 112 2 206 9 207 13 2 5 51 9 108 9 77 0 103 3 101
12 -1 9 20 14 73 16 41 2 77 8 78 13 5 12 52 12 52 -1 0 -12 47 -13 52 -1 2 5
23 12 47 15 25 3 49 10 55 16 5 5 32 10 58 10 33 0 48 4 48 13 0 8 15 14 38
15 20 2 39 7 40 12 2 6 25 10 52 10 33 0 50 5 54 15 3 9 19 15 41 15 19 0 35
5 35 10 0 6 23 10 50 10 38 0 50 4 50 15 0 11 11 15 40 15 22 0 40 4 40 10 0
5 11 12 25 16 14 3 25 10 25 15 0 5 16 9 36 9 19 0 42 7 50 15 9 8 29 15 45
15 16 0 29 5 29 10 0 6 11 10 24 10 13 0 26 7 30 15 3 8 18 15 33 15 15 0 37
7 47 15 10 8 22 12 26 10 4 -3 13 2 20 10 7 8 25 15 40 15 16 0 30 7 34 15 3
8 17 15 31 15 15 0 24 4 20 10 -4 6 7 10 24 10 21 0 31 5 31 15 0 9 9 15 25
15 14 0 25 5 25 10 0 6 11 10 25 10 16 0 25 6 25 15 0 9 9 15 25 15 14 0 25 4
25 9 0 5 11 12 25 15 14 4 25 11 25 16 0 6 9 10 20 10 12 0 31 11 44 25 13 14
33 25 45 25 12 0 21 6 21 15 0 8 5 15 11 15 7 0 22 11 35 25 13 14 28 25 34
25 6 0 21 11 34 25 13 14 28 25 34 25 5 0 12 7 16 15 3 8 12 15 21 15 9 0 37
23 64 50 27 27 54 50 60 50 7 0 9 4 6 10 -3 5 6 12 20 16 14 3 25 10 25 15 0
5 7 9 15 9 8 0 15 5 15 11 0 14 55 69 69 69 6 0 11 5 11 11 0 14 25 39 39 39
6 0 11 5 11 11 0 14 25 39 39 39 6 0 11 7 11 15 0 8 4 15 9 15 5 0 13 10 17
23 4 12 22 36 40 54 19 17 34 36 34 42 0 6 7 11 15 11 9 0 15 9 15 25 0 16 6
25 16 25 8 0 12 5 9 10 -3 6 1 13 9 16 9 3 16 13 16 22 0 9 11 26 24 37 13 11
26 32 28 45 2 14 9 24 16 22 7 -1 12 10 12 28 0 16 5 30 10 30 6 0 10 11 10
24 0 14 6 31 14 39 8 7 16 29 17 48 2 19 7 37 11 40 5 3 11 25 14 50 4 24 10
46 15 49 4 3 9 33 10 68 2 44 6 62 16 62 10 0 13 21 13 89 0 49 4 91 9 93 6 2
11 56 12 121 2 83 6 123 16 132 15 16 18 102 2 107 -5 2 -13 42 -16 88 -3 47
-9 87 -14 88 -5 2 -9 21 -9 43 0 28 -4 39 -15 39 -11 0 -15 11 -15 40 0 22 -4
40 -9 40 -5 0 -12 11 -15 25 -4 14 -11 25 -16 25 -6 0 -10 11 -10 25 0 16 -6
25 -15 25 -8 0 -15 7 -15 15 0 8 -4 15 -10 15 -5 0 -10 11 -10 25 0 14 -5 25
-11 25 -6 0 -17 6 -25 14 -8 8 -14 19 -14 25 0 6 -7 11 -15 11 -8 0 -15 5 -15
11 0 14 -25 39 -39 39 -6 0 -11 7 -11 15 0 8 -7 15 -15 15 -8 0 -14 6 -12 13
1 6 -4 11 -10 10 -7 -2 -13 6 -13 17 0 11 -18 38 -40 60 -22 22 -40 45 -40 51
0 5 -4 8 -9 5 -5 -3 -12 5 -15 19 -4 14 -11 25 -16 25 -6 0 -10 7 -10 15 0 8
-5 15 -11 15 -6 0 -17 6 -25 14 -8 8 -14 19 -14 25 0 6 -7 11 -15 11 -8 0 -15
6 -15 13 0 8 -11 20 -25 27 -14 7 -25 19 -25 27 0 7 -5 13 -11 13 -6 0 -17 6
-25 14 -8 8 -14 19 -14 25 0 6 -7 11 -15 11 -8 0 -15 4 -15 9 0 5 -9 13 -21
16 -28 9 -59 37 -53 47 3 4 0 8 -7 8 -6 0 -22 11 -35 25 -13 14 -29 25 -36 25
-7 0 -28 13 -45 29 -29 25 -33 35 -33 80 0 44 3 51 20 51 10 0 40 -12 65 -27z
m-5615 -168 c0 -8 7 -15 15 -15 29 0 15 -43 -30 -86 -24 -24 -49 -44 -55 -44
-5 0 -10 -5 -10 -11 0 -14 -25 -39 -39 -39 -6 0 -11 -5 -11 -11 0 -6 -16 -25
-35 -43 -19 -19 -35 -38 -35 -45 0 -6 -7 -11 -15 -11 -8 0 -15 -7 -15 -15 0
-9 -11 -26 -25 -39 -14 -13 -25 -28 -25 -35 0 -6 -7 -11 -15 -11 -8 0 -15 -7
-15 -15 0 -8 -4 -15 -10 -15 -5 0 -10 -6 -10 -14 0 -8 -13 -28 -30 -46 -16
-18 -30 -38 -30 -46 0 -8 -3 -14 -7 -14 -13 1 -43 27 -43 38 0 5 -7 12 -15 16
-8 3 -15 15 -15 26 0 11 -4 20 -9 20 -15 0 -20 51 -5 57 8 3 14 14 14 24 0 10
7 19 15 19 8 0 15 5 15 11 0 14 167 179 174 171 3 -3 6 2 6 10 0 9 11 19 25
22 14 4 25 11 25 16 0 6 7 10 16 10 8 0 13 4 10 8 -6 9 29 42 44 42 6 0 10 7
10 15 0 8 7 15 15 15 8 0 15 5 15 10 0 6 9 10 19 10 10 0 21 7 25 15 3 8 17
15 31 15 16 0 25 -6 25 -15z m1140 0 c0 -11 11 -15 40 -15 22 0 40 -4 40 -10
0 -5 9 -10 20 -10 11 0 23 -7 26 -15 4 -8 15 -15 26 -15 19 0 128 -102 128
-120 0 -6 7 -10 15 -10 8 0 15 -7 15 -15 0 -8 3 -15 8 -15 11 0 42 -59 42 -81
0 -10 7 -19 15 -19 9 0 15 -9 15 -25 0 -14 5 -25 10 -25 6 0 10 -11 10 -25 0
-16 6 -25 15 -25 8 0 15 -7 15 -15 0 -8 4 -15 9 -15 5 0 12 -11 15 -25 4 -14
11 -25 16 -25 6 0 10 -11 10 -25 0 -16 6 -25 15 -25 9 0 15 -9 15 -25 0 -14 5
-25 10 -25 6 0 10 -11 10 -25 0 -16 6 -25 15 -25 9 0 15 -9 15 -25 0 -14 5
-25 10 -25 6 0 10 -6 10 -14 0 -8 7 -16 15 -20 8 -3 15 -14 15 -25 0 -10 7
-22 16 -25 8 -3 13 -10 10 -15 -4 -5 1 -16 9 -24 8 -9 15 -24 15 -35 0 -11 7
-22 15 -26 8 -3 15 -15 15 -27 0 -12 11 -32 25 -45 14 -13 25 -32 25 -44 0
-11 4 -20 10 -20 5 0 12 -11 16 -25 3 -14 10 -25 15 -25 5 0 9 -11 9 -25 0
-16 6 -25 15 -25 9 0 15 -9 15 -25 0 -14 5 -25 10 -25 6 0 10 -7 10 -15 0 -8
6 -15 13 -15 7 0 13 -10 14 -22 1 -11 6 -24 11 -27 5 -3 12 -16 16 -28 4 -13
12 -23 17 -23 5 0 9 -11 9 -25 0 -16 6 -25 15 -25 9 0 15 -9 15 -25 0 -14 5
-25 10 -25 6 0 10 -11 10 -25 0 -16 6 -25 15 -25 8 0 15 -7 15 -15 0 -8 5 -15
10 -15 6 0 10 -11 10 -25 0 -16 6 -25 15 -25 9 0 15 -9 15 -24 0 -13 7 -26 15
-30 8 -3 15 -15 15 -26 0 -11 5 -20 10 -20 6 0 10 -13 10 -30 0 -16 5 -30 11
-30 17 0 39 -27 39 -48 0 -11 7 -22 15 -26 8 -3 15 -17 15 -31 0 -14 6 -25 13
-25 7 0 14 -10 14 -22 1 -13 7 -24 13 -26 5 -2 10 -15 10 -28 0 -15 6 -24 15
-24 8 0 15 -7 15 -15 0 -8 5 -15 10 -15 6 0 10 -11 10 -25 0 -16 6 -25 15 -25
9 0 15 -9 15 -25 0 -14 4 -25 9 -25 5 0 12 -11 15 -25 4 -14 11 -25 16 -25 6
0 10 -11 10 -24 0 -13 7 -26 15 -30 8 -3 15 -15 15 -26 0 -11 5 -20 10 -20 6
0 10 -47 10 -120 0 -66 -4 -120 -9 -120 -5 0 -12 -11 -15 -25 -4 -14 -11 -25
-16 -25 -6 0 -10 -7 -10 -15 0 -8 -7 -15 -15 -15 -8 0 -15 -7 -15 -16 0 -8 -5
-12 -10 -9 -6 3 -13 -1 -16 -9 -3 -9 -15 -16 -25 -16 -11 0 -22 -7 -25 -15 -5
-12 -28 -15 -120 -15 -95 0 -114 3 -114 15 0 9 -9 15 -21 15 -12 0 -32 11 -45
25 -13 14 -28 25 -34 25 -5 0 -10 5 -10 11 0 14 -25 39 -39 39 -6 0 -11 4 -11
10 0 13 -107 120 -120 120 -6 0 -10 5 -10 11 0 14 -25 39 -39 39 -6 0 -11 5
-11 10 0 13 -57 70 -70 70 -6 0 -10 5 -10 11 0 14 -25 39 -39 39 -6 0 -11 5
-11 11 0 14 -25 39 -39 39 -6 0 -11 4 -11 10 0 13 -57 70 -70 70 -5 0 -10 5
-10 11 0 14 -25 39 -39 39 -6 0 -11 5 -11 11 0 7 -17 28 -37 47 -21 20 -37 39
-35 44 1 4 -5 8 -13 8 -8 0 -15 5 -15 10 0 6 -7 10 -15 10 -8 0 -15 5 -15 10
0 13 -57 70 -70 70 -6 0 -10 5 -10 11 0 14 -25 39 -39 39 -6 0 -11 5 -11 11 0
14 -25 39 -39 39 -6 0 -11 4 -11 9 0 12 -59 71 -71 71 -5 0 -9 5 -9 11 0 14
-25 39 -39 39 -6 0 -11 4 -11 10 0 13 -106 120 -119 120 -6 0 -11 7 -11 15 0
8 -4 15 -10 15 -5 0 -10 7 -10 15 0 8 -4 15 -10 15 -13 0 -96 83 -93 92 2 5
-4 8 -12 8 -8 0 -15 7 -15 15 0 8 -7 15 -16 15 -8 0 -12 5 -9 10 3 6 -1 10 -9
10 -9 0 -16 6 -16 13 0 8 -11 20 -25 27 -14 7 -25 19 -25 27 0 7 -7 13 -15 13
-8 0 -15 7 -15 15 0 8 -7 15 -16 15 -8 0 -12 5 -9 10 3 6 -1 10 -9 10 -9 0
-16 7 -16 15 0 8 -8 15 -17 15 -9 0 -14 3 -11 6 8 7 -28 44 -42 44 -13 0 -13
17 0 25 6 3 13 -1 16 -9 3 -9 15 -16 26 -16 12 0 31 -11 44 -25 18 -20 33 -25
69 -25 25 0 45 4 45 10 0 5 11 12 25 16 14 3 25 10 25 15 0 5 11 9 25 9 16 0
25 6 25 15 0 8 3 15 8 15 11 0 42 59 42 81 0 11 7 19 16 19 9 0 14 6 11 13 -2
6 -9 11 -14 10 -5 -1 -10 8 -10 20 -1 11 -9 25 -18 29 -8 5 -13 13 -10 19 4 5
-5 9 -18 9 -14 0 -27 -7 -31 -15 -3 -8 -15 -15 -26 -15 -11 0 -20 -4 -20 -10
0 -5 -7 -10 -15 -10 -8 0 -15 -5 -15 -11 0 -19 -58 -69 -79 -69 -12 0 -21 -6
-21 -15 0 -9 -9 -15 -25 -15 -14 0 -25 -4 -25 -10 0 -5 -13 -10 -30 -10 -20 0
-30 -5 -30 -15 0 -8 -4 -15 -10 -15 -5 0 -10 7 -10 15 0 8 -7 15 -15 15 -9 0
-15 9 -15 25 0 16 -6 25 -15 25 -8 0 -15 7 -15 15 0 8 -4 15 -10 15 -5 0 -10
9 -10 20 0 11 -7 23 -15 26 -10 4 -15 20 -15 45 0 27 -4 39 -14 39 -22 0 -23
328 -1 336 9 4 15 19 15 39 0 21 6 35 16 39 9 4 14 9 11 13 -9 9 25 63 40 63
7 0 13 11 13 25 0 14 5 25 10 25 6 0 10 7 10 15 0 8 6 15 13 15 6 0 28 18 47
40 19 22 43 40 53 40 9 0 17 5 17 10 0 6 7 10 15 10 8 0 15 7 15 15 0 9 9 15
25 15 14 0 25 5 25 10 0 6 16 10 35 10 22 0 38 6 41 15 5 13 34 15 175 15 144
0 169 -2 169 -15z m4405 -15 c4 0 18 -11 31 -25 13 -14 28 -25 35 -25 7 0 29
-18 50 -40 21 -22 41 -40 44 -40 10 0 35 -28 35 -39 0 -6 5 -11 11 -11 14 0
39 -25 39 -39 0 -6 5 -11 11 -11 6 0 17 -6 25 -14 8 -8 14 -19 14 -25 0 -6 7
-11 15 -11 8 0 15 -7 15 -15 0 -17 -46 -21 -52 -4 -2 5 -19 11 -38 13 -18 1
-36 8 -38 14 -2 8 -30 12 -78 12 -51 0 -76 4 -79 13 -7 16 -140 16 -157 -1
-18 -18 -78 -16 -78 3 0 8 7 15 16 15 8 0 12 5 9 10 -3 6 1 13 9 16 9 3 16 15
16 25 0 11 7 22 15 25 8 4 15 17 15 29 0 13 5 25 10 27 6 2 12 13 13 26 0 12
7 22 14 22 7 0 13 9 13 20 0 11 8 28 18 39 14 15 19 16 28 5 6 -8 15 -14 19
-14z m-5415 -111 c0 -14 25 -39 39 -39 6 0 11 -7 11 -15 0 -8 9 -15 20 -15 11
0 42 -22 69 -50 27 -27 54 -50 60 -50 17 0 14 -70 -4 -76 -11 -5 -15 -22 -15
-70 0 -36 -4 -64 -10 -64 -6 0 -10 -28 -10 -65 0 -37 4 -65 10 -65 6 0 10 -28
10 -65 0 -46 4 -65 13 -65 7 0 14 -11 15 -25 1 -21 -2 -25 -27 -25 -16 0 -31
4 -33 10 -1 5 -18 10 -35 12 -19 1 -33 8 -33 15 0 8 -14 13 -39 13 -22 0 -41
4 -43 10 -1 5 -31 13 -65 16 -35 4 -63 11 -63 15 0 12 -128 11 -132 -1 -1 -5
-37 -13 -78 -16 -41 -4 -76 -11 -78 -15 -7 -18 -22 -8 -22 15 0 13 -7 26 -15
30 -8 3 -15 14 -15 25 0 11 -4 23 -10 26 -5 3 -10 17 -10 31 0 14 4 22 10 19
6 -3 10 1 10 9 0 9 7 16 15 16 9 0 15 9 15 21 0 12 11 32 25 45 14 13 25 28
25 34 0 5 4 10 9 10 5 0 13 10 17 22 8 26 28 48 43 48 6 0 11 7 11 15 0 8 5
15 10 15 6 0 10 7 10 15 0 8 5 15 11 15 14 0 39 25 39 39 0 6 7 11 15 11 8 0
15 7 15 16 0 8 5 12 10 9 6 -3 10 1 10 9 0 9 7 16 15 16 8 0 15 7 15 15 0 8 5
15 11 15 14 0 39 25 39 39 0 6 6 11 13 11 7 0 21 11 31 25 19 25 66 35 66 14z
m-834 -154 c4 -8 12 -15 20 -15 8 0 14 -7 14 -15 0 -8 5 -15 11 -15 14 0 39
-25 39 -39 0 -6 7 -11 15 -11 9 0 15 -9 15 -25 0 -14 5 -25 10 -25 6 0 10 -11
10 -25 0 -16 6 -25 15 -25 8 0 15 -7 15 -15 0 -8 4 -15 10 -15 5 0 12 -11 16
-25 3 -14 10 -25 15 -25 5 0 9 -11 9 -24 0 -13 7 -26 15 -30 8 -3 15 -15 15
-26 0 -11 5 -20 10 -20 6 0 10 -6 10 -14 0 -8 7 -16 15 -20 8 -3 15 -15 15
-26 0 -11 4 -20 9 -20 5 0 11 -10 14 -22 7 -26 -22 -58 -53 -58 -11 0 -20 -7
-20 -15 0 -8 -7 -15 -15 -15 -8 0 -15 -4 -15 -10 0 -5 -11 -12 -25 -16 -14 -3
-25 -10 -25 -15 0 -5 -7 -9 -15 -9 -8 0 -15 -5 -15 -11 0 -14 -25 -39 -39 -39
-6 0 -11 -5 -11 -11 0 -14 -25 -39 -39 -39 -6 0 -11 -7 -11 -15 0 -8 -4 -15
-10 -15 -5 0 -12 -11 -16 -25 -3 -14 -10 -25 -15 -25 -5 0 -9 -7 -9 -15 0 -8
-7 -15 -15 -15 -9 0 -15 -9 -15 -25 0 -14 -4 -25 -9 -25 -5 0 -11 -18 -15 -40
-4 -23 -11 -38 -16 -35 -6 4 -10 -7 -10 -24 0 -29 -2 -31 -40 -31 -29 0 -40 4
-40 15 0 9 -9 15 -25 15 -14 0 -25 5 -25 10 0 6 -11 10 -25 10 -16 0 -25 6
-25 15 0 10 -10 15 -30 15 -16 0 -30 4 -30 10 0 5 -15 16 -34 25 -19 9 -37 23
-40 31 -3 8 -17 14 -31 14 -14 0 -25 5 -25 10 0 6 -7 10 -15 10 -8 0 -25 11
-39 25 -14 14 -29 25 -35 25 -16 0 -91 75 -91 92 0 9 -4 18 -9 20 -10 3 -15
47 -12 101 1 22 6 27 26 27 16 0 25 6 25 15 0 8 7 15 16 15 8 0 12 5 9 10 -5
9 1 11 30 10 3 0 21 7 41 15 40 16 134 21 134 6 0 -5 13 -12 30 -16 17 -4 30
-11 30 -16 0 -5 16 -9 35 -9 24 0 35 -5 35 -15 0 -8 7 -15 16 -15 8 0 13 4 10
8 -6 9 29 42 44 42 6 0 10 11 10 25 0 16 -6 25 -15 25 -11 0 -15 12 -15 50 0
28 -4 50 -9 50 -5 0 -13 25 -16 55 -4 30 -11 55 -16 55 -5 0 -9 23 -9 50 0 28
4 50 9 50 5 0 12 12 15 26 8 29 29 54 45 54 6 0 11 5 11 11 0 13 20 34 40 42
8 3 41 6 73 6 43 1 59 -3 63 -14z m6414 -80 c0 -11 11 -15 40 -15 22 0 40 -4
40 -10 0 -5 16 -10 35 -10 22 0 38 -6 41 -15 4 -8 17 -15 30 -15 13 0 24 -4
24 -10 0 -5 11 -12 25 -16 14 -3 25 -10 25 -15 0 -5 7 -9 15 -9 8 0 15 -7 15
-15 0 -8 9 -15 21 -15 26 0 159 -134 159 -161 0 -10 5 -19 11 -19 13 0 39 -25
39 -38 0 -6 7 -12 15 -16 8 -3 15 -14 15 -25 0 -11 5 -21 10 -23 6 -2 12 -13
13 -25 0 -13 7 -25 14 -27 7 -3 13 -21 13 -40 0 -21 6 -36 15 -40 9 -3 15 -19
15 -41 0 -19 5 -35 10 -35 6 0 10 -75 10 -205 0 -117 -4 -205 -9 -205 -5 0
-11 -53 -13 -117 -2 -82 -7 -118 -15 -121 -9 -2 -13 -27 -13 -78 0 -41 -4 -74
-9 -74 -4 0 -11 -28 -15 -62 -3 -35 -11 -64 -16 -66 -6 -2 -10 -21 -10 -43 0
-28 -4 -39 -15 -39 -9 0 -15 -9 -15 -25 0 -14 -4 -25 -9 -25 -5 0 -11 -12 -13
-27 -2 -16 -8 -27 -15 -25 -8 1 -13 -8 -13 -23 0 -14 -7 -28 -15 -31 -8 -4
-12 -10 -9 -15 3 -5 -2 -9 -10 -9 -10 0 -16 -9 -16 -25 0 -16 -6 -25 -15 -25
-8 0 -15 -7 -15 -15 0 -8 -4 -15 -9 -15 -5 0 -12 -11 -15 -25 -4 -14 -11 -25
-16 -25 -6 0 -10 -5 -10 -11 0 -14 -25 -39 -39 -39 -6 0 -11 -7 -11 -15 0 -8
-7 -15 -15 -15 -8 0 -15 -5 -15 -11 0 -14 -25 -39 -39 -39 -6 0 -11 -5 -11
-11 0 -14 -25 -39 -39 -39 -6 0 -11 -5 -11 -11 0 -14 -55 -69 -69 -69 -6 0
-11 -5 -11 -11 0 -14 -25 -39 -39 -39 -6 0 -11 -5 -11 -11 0 -14 -25 -39 -39
-39 -6 0 -11 -7 -11 -15 0 -8 -7 -15 -15 -15 -8 0 -15 -4 -15 -9 0 -5 -10 -13
-22 -17 -12 -3 -36 -22 -54 -40 -17 -19 -36 -34 -42 -34 -5 0 -12 -7 -16 -15
-3 -8 -13 -15 -21 -15 -19 0 -45 -23 -45 -39 0 -6 -7 -11 -15 -11 -8 0 -15 -4
-15 -10 0 -5 -11 -12 -25 -16 -14 -3 -25 -10 -25 -15 0 -5 -7 -9 -15 -9 -8 0
-15 -4 -15 -10 0 -5 -11 -12 -25 -16 -14 -3 -25 -10 -25 -15 0 -5 -11 -9 -25
-9 -16 0 -25 -6 -25 -15 0 -9 -9 -15 -24 -15 -13 0 -26 -7 -30 -15 -3 -8 -15
-15 -26 -15 -11 0 -20 -4 -20 -10 0 -5 -11 -10 -25 -10 -14 0 -28 -7 -31 -15
-4 -8 -17 -15 -30 -15 -13 0 -24 -4 -24 -10 0 -5 -11 -10 -25 -10 -16 0 -25
-6 -25 -15 0 -11 -11 -15 -40 -15 -29 0 -40 -4 -40 -15 0 -8 -6 -12 -14 -9 -7
3 -20 -2 -29 -10 -9 -9 -32 -16 -51 -16 -24 0 -35 -4 -34 -12 2 -8 -11 -14
-34 -16 -21 -2 -38 -7 -38 -13 0 -5 -14 -9 -30 -9 -19 0 -29 -5 -28 -12 2 -8
-11 -14 -34 -16 -21 -2 -38 -7 -38 -13 0 -5 -18 -9 -40 -9 -29 0 -40 -4 -40
-15 0 -11 -11 -15 -36 -15 -19 0 -42 -7 -50 -15 -9 -8 -29 -15 -45 -15 -16 0
-29 -4 -29 -10 0 -5 -22 -10 -50 -10 -38 0 -50 -4 -50 -15 0 -11 -11 -15 -40
-15 -22 0 -40 -4 -40 -10 0 -5 -22 -10 -50 -10 -38 0 -50 -4 -50 -15 0 -11
-11 -15 -40 -15 -22 0 -40 -4 -40 -9 0 -12 -75 -23 -105 -15 -25 6 -25 7 -25
129 0 72 4 126 10 130 6 3 10 17 10 31 0 15 6 24 15 24 9 0 15 9 15 25 0 14 4
25 9 25 5 0 12 11 15 25 4 14 11 25 16 25 6 0 10 7 10 15 0 8 7 15 15 15 8 0
15 5 15 11 0 6 7 17 15 26 8 8 13 19 9 24 -3 5 2 12 10 15 9 3 16 17 16 30 0
13 4 24 9 24 5 0 12 11 15 25 4 14 11 25 16 25 6 0 10 18 10 40 0 29 4 40 15
40 12 0 15 13 15 58 0 32 4 62 9 68 5 5 11 56 12 113 2 69 7 108 16 116 10 10
13 59 13 197 0 102 4 188 9 194 6 5 11 41 12 79 3 81 8 107 20 99 5 -3 9 19 9
49 0 35 5 57 13 60 7 2 14 20 15 38 1 19 7 36 12 37 6 2 10 15 10 28 0 15 6
24 15 24 8 0 15 5 15 11 0 6 6 17 14 25 8 8 19 14 25 14 6 0 11 7 11 15 0 8 7
15 16 15 8 0 13 4 10 8 -7 12 31 42 53 42 10 0 21 7 25 15 3 8 15 15 26 15 11
0 20 5 20 10 0 6 7 10 15 10 8 0 15 6 15 14 0 8 7 16 15 20 8 3 15 15 15 26 0
11 5 20 10 20 6 0 10 11 10 25 0 16 6 25 15 25 9 0 15 9 15 25 0 14 5 25 10
25 6 0 10 16 10 35 0 22 6 38 15 41 11 5 15 24 15 80 0 41 4 74 9 74 4 0 11
24 14 52 4 29 11 54 17 56 5 2 10 15 10 28 0 15 6 24 15 24 11 0 15 11 15 41
0 24 4 38 10 34 6 -3 10 0 10 8 0 8 7 17 15 21 8 3 15 17 15 31 0 16 6 25 16
25 8 0 12 5 9 10 -3 6 1 10 9 10 14 0 21 18 17 43 0 4 6 7 14 7 8 0 15 7 15
16 0 8 5 12 10 9 6 -3 10 1 10 9 0 9 7 16 15 16 8 0 15 7 15 15 0 8 7 15 15
15 8 0 15 3 15 8 0 4 16 16 35 26 19 11 35 25 35 33 0 7 10 13 21 13 12 0 32
11 45 25 13 14 30 25 39 25 9 0 23 7 31 15 9 8 29 15 45 15 16 0 29 5 29 10 0
6 18 10 39 10 25 0 41 5 45 15 4 13 37 15 206 15 171 0 200 -2 200 -15z
m-1078 -24 c2 -6 24 -11 51 -12 31 -2 47 -7 47 -16 0 -8 13 -13 35 -13 20 0
38 -6 41 -13 2 -7 14 -13 25 -14 11 -1 30 -12 41 -25 17 -20 18 -23 4 -26 -9
-2 -16 -8 -16 -13 0 -14 -33 -48 -42 -43 -4 3 -8 0 -8 -7 0 -6 -11 -22 -25
-35 -14 -13 -25 -27 -25 -31 0 -5 -11 -20 -25 -35 -14 -15 -25 -36 -25 -48 0
-11 -7 -20 -15 -20 -9 0 -15 -9 -15 -25 0 -14 -4 -25 -9 -25 -5 0 -12 -13 -16
-30 -4 -16 -11 -30 -16 -30 -5 0 -9 -11 -9 -24 0 -13 -5 -26 -11 -28 -7 -2
-14 -24 -16 -48 -2 -25 -8 -47 -13 -50 -5 -3 -10 -38 -11 -77 -1 -50 -6 -74
-16 -77 -8 -3 -13 -21 -13 -46 0 -22 -4 -40 -10 -40 -5 0 -10 -9 -10 -20 0
-11 -7 -23 -15 -26 -8 -4 -15 -15 -15 -26 0 -21 -51 -78 -69 -78 -6 0 -11 -7
-11 -15 0 -9 -9 -15 -25 -15 -14 0 -25 -4 -25 -10 0 -5 -11 -10 -25 -10 -16 0
-25 -6 -25 -15 0 -8 -7 -15 -15 -15 -8 0 -15 -7 -15 -16 0 -8 -4 -12 -10 -9
-5 3 -10 -1 -10 -9 0 -9 -7 -16 -15 -16 -9 0 -15 -9 -15 -21 0 -12 -11 -32
-25 -45 -16 -14 -25 -34 -25 -52 0 -17 -6 -32 -15 -36 -8 -3 -15 -17 -15 -31
0 -14 -4 -25 -10 -25 -5 0 -10 -22 -10 -50 0 -38 -4 -50 -15 -50 -12 0 -15
-15 -15 -75 0 -43 -4 -75 -10 -75 -6 0 -10 -48 -10 -122 0 -186 18 -169 -179
-166 l-166 3 3 25 c2 14 8 27 13 28 5 2 9 15 9 28 0 15 6 24 15 24 9 0 15 9
15 21 0 12 11 32 25 45 16 15 25 34 25 54 l0 30 -74 0 c-56 0 -75 -4 -80 -15
-3 -9 -19 -15 -41 -15 -19 0 -35 -4 -35 -10 0 -5 -18 -10 -40 -10 -29 0 -40
-4 -40 -15 0 -11 -11 -15 -41 -15 -24 0 -38 -4 -34 -10 3 -5 -3 -10 -14 -10
-11 0 -26 -7 -35 -15 -21 -22 -44 -19 -70 10 -13 14 -28 25 -35 25 -6 0 -10 4
-9 8 2 5 -14 24 -34 44 -21 19 -38 45 -38 57 0 12 -6 21 -15 21 -9 0 -15 9
-15 24 0 13 -7 27 -16 30 -8 3 -12 10 -9 16 3 5 -1 10 -9 10 -12 0 -16 10 -16
35 0 22 -6 38 -15 41 -9 4 -15 19 -15 40 0 19 -4 34 -10 34 -6 0 -10 71 -10
194 0 221 -7 206 96 206 36 0 64 4 64 10 0 6 30 10 71 10 49 0 75 4 85 15 9 8
29 15 45 15 16 0 29 5 29 10 0 6 15 10 34 10 21 0 36 6 40 15 3 8 16 15 28 15
13 0 32 11 42 25 11 15 29 25 43 25 13 0 22 4 19 8 -7 12 31 42 54 42 11 0 20
7 20 15 0 8 5 15 11 15 14 0 39 25 39 39 0 6 6 11 13 11 8 0 20 11 27 25 7 14
19 25 27 25 11 0 18 19 14 43 0 4 6 7 14 7 8 0 15 7 15 15 0 8 5 15 10 15 6 0
10 11 10 25 0 16 6 25 15 25 9 0 15 9 15 24 0 13 5 26 10 28 6 2 12 13 13 26
0 12 7 22 14 22 8 0 13 14 13 39 0 22 4 41 9 43 5 2 11 41 15 88 3 47 11 87
16 88 6 2 10 28 10 58 l0 54 40 0 c22 0 40 5 40 10 0 13 467 14 472 1z m-4502
-440 c0 -5 18 -11 40 -15 22 -3 40 -11 40 -16 0 -6 11 -10 25 -10 14 0 25 -4
25 -10 0 -5 11 -12 25 -16 14 -3 25 -10 25 -15 0 -5 7 -9 15 -9 8 0 15 -7 15
-15 0 -8 5 -15 11 -15 6 0 17 -7 26 -15 8 -8 19 -13 24 -10 5 4 9 -1 9 -9 0
-9 7 -16 15 -16 8 0 15 -6 15 -14 0 -8 7 -16 15 -20 8 -3 15 -15 15 -26 0 -12
5 -18 10 -15 6 3 10 -1 10 -9 0 -9 7 -16 15 -16 8 0 15 -4 15 -9 0 -12 59 -71
71 -71 5 0 9 -7 9 -15 0 -8 5 -15 10 -15 6 0 10 -11 10 -25 0 -14 5 -25 11
-25 14 0 39 -25 39 -39 0 -6 5 -11 11 -11 14 0 69 -55 69 -69 0 -6 5 -11 11
-11 14 0 39 -25 39 -39 0 -6 7 -11 15 -11 9 0 15 -9 15 -25 0 -14 5 -25 11
-25 14 0 39 -25 39 -39 0 -6 7 -11 15 -11 8 0 15 -5 15 -11 0 -14 25 -39 39
-39 6 0 11 -5 11 -11 0 -6 18 -28 40 -50 22 -22 40 -46 40 -54 0 -8 5 -15 10
-15 6 0 10 -7 10 -15 0 -8 5 -15 11 -15 14 0 39 -25 39 -39 0 -6 7 -11 15 -11
8 0 15 -7 15 -15 0 -8 5 -15 11 -15 6 0 17 -6 25 -14 8 -8 14 -19 14 -25 0 -6
7 -11 15 -11 8 0 15 -7 15 -15 0 -8 5 -15 10 -15 6 0 10 -9 10 -20 0 -11 7
-20 15 -20 8 0 15 -4 15 -10 0 -5 41 -50 90 -99 54 -54 90 -99 90 -111 0 -11
5 -20 11 -20 14 0 39 -25 39 -39 0 -6 5 -11 11 -11 14 0 39 -25 39 -39 0 -6 7
-11 15 -11 8 0 15 -5 15 -11 0 -6 6 -17 14 -25 8 -8 19 -14 25 -14 6 0 11 -7
11 -15 0 -8 4 -15 9 -15 5 0 13 -10 17 -22 3 -12 22 -36 40 -54 19 -17 34 -36
34 -43 0 -6 5 -11 11 -11 14 0 69 -55 69 -70 0 -6 4 -9 8 -6 12 7 42 -31 42
-54 0 -11 7 -20 15 -20 8 0 15 -7 15 -15 0 -8 5 -15 11 -15 14 0 39 -25 39
-39 0 -6 7 -11 15 -11 8 0 15 -7 15 -16 0 -8 5 -12 10 -9 5 3 10 -1 10 -9 0
-9 7 -16 15 -16 8 0 15 -5 15 -11 0 -7 11 -22 25 -35 14 -13 25 -30 25 -39 0
-8 7 -15 15 -15 8 0 15 -7 15 -15 0 -8 5 -15 10 -15 6 0 10 -7 10 -15 0 -8 7
-15 15 -15 8 0 15 -7 15 -15 0 -8 5 -15 10 -15 6 0 10 -9 10 -19 0 -10 7 -21
15 -25 12 -4 15 -29 15 -135 0 -105 -3 -130 -15 -135 -8 -3 -15 -15 -15 -26 0
-11 -4 -20 -10 -20 -5 0 -10 -6 -10 -14 0 -23 -65 -86 -89 -86 -12 0 -21 -6
-21 -15 0 -9 -9 -15 -24 -15 -13 0 -26 -7 -30 -15 -4 -12 -27 -14 -127 -12
-87 1 -124 6 -127 15 -2 6 -15 12 -28 12 -15 0 -24 6 -24 15 0 8 -4 15 -10 15
-15 0 -50 33 -44 42 3 4 -9 8 -25 8 -17 0 -31 3 -31 8 0 4 -15 16 -34 26 -19
10 -37 25 -40 32 -3 8 -17 14 -31 14 -15 0 -24 4 -20 10 3 6 -1 10 -9 10 -9 0
-16 7 -16 15 0 9 -9 15 -25 15 -14 0 -25 5 -25 10 0 6 -7 10 -15 10 -8 0 -15
7 -15 15 0 9 -9 15 -25 15 -14 0 -25 4 -25 10 0 5 -11 12 -25 16 -14 3 -25 10
-25 15 0 5 -7 9 -15 9 -8 0 -15 7 -15 15 0 9 -9 15 -21 15 -12 0 -32 11 -45
25 -13 14 -30 25 -39 25 -19 0 -45 23 -45 39 0 6 -11 11 -25 11 -14 0 -28 7
-31 15 -4 8 -14 15 -23 15 -20 1 -51 24 -51 39 0 6 -10 11 -21 11 -12 0 -32
11 -44 24 -12 13 -30 26 -40 27 -22 5 -32 29 -12 29 8 0 17 7 21 15 3 9 18 15
36 15 16 0 30 5 30 10 0 6 7 10 15 10 8 0 15 7 15 15 0 8 5 15 11 15 14 0 39
25 39 39 0 6 7 11 16 11 8 0 12 5 9 10 -3 6 1 13 9 16 10 4 16 18 16 39 0 19
6 35 14 38 18 7 17 45 -1 51 -7 3 -13 14 -13 25 0 12 -9 21 -25 25 -14 4 -25
11 -25 16 0 6 -7 10 -15 10 -8 0 -14 -5 -13 -11 2 -7 -12 -14 -31 -16 -34 -5
-61 -23 -61 -42 0 -6 -7 -11 -15 -11 -8 0 -15 -7 -15 -15 0 -8 -5 -15 -11 -15
-14 0 -39 -25 -39 -39 0 -6 -7 -11 -15 -11 -8 0 -15 -4 -15 -10 0 -5 -11 -10
-24 -10 -13 0 -26 -7 -30 -15 -3 -8 -17 -15 -31 -15 -15 0 -24 -4 -21 -9 7
-11 -31 -21 -59 -17 -11 2 -19 9 -17 15 1 6 -7 11 -18 11 -12 0 -31 11 -44 25
-13 14 -33 25 -45 25 -12 0 -21 6 -21 15 0 8 -7 15 -15 15 -8 0 -15 5 -15 10
0 6 -11 10 -25 10 -16 0 -25 6 -25 15 0 9 -9 15 -25 15 -16 0 -25 6 -25 15 0
8 -7 15 -15 15 -8 0 -15 6 -15 14 0 7 -9 13 -22 12 -11 0 -23 5 -25 12 -3 8
10 12 46 12 39 0 51 4 51 15 0 8 7 15 15 15 8 0 15 4 15 9 0 5 11 12 25 15 14
4 25 11 25 16 0 6 5 10 10 10 13 0 70 57 70 70 0 6 5 10 10 10 6 0 10 14 10
30 0 18 6 33 15 36 9 4 15 19 15 36 0 16 -4 27 -10 23 -5 -3 -12 5 -15 17 -3
13 -20 31 -36 41 -27 15 -32 15 -45 2 -9 -8 -27 -15 -40 -15 -26 0 -54 -20
-54 -39 0 -6 -7 -11 -15 -11 -8 0 -15 -5 -15 -11 0 -11 -25 -39 -35 -39 -3 0
-16 -11 -29 -25 -13 -14 -33 -25 -45 -25 -11 0 -21 -4 -21 -10 0 -5 -11 -12
-25 -16 -14 -3 -25 -10 -25 -15 0 -5 -11 -9 -25 -9 -27 0 -34 -17 -10 -26 18
-7 10 -24 -11 -24 -8 0 -12 5 -9 10 3 6 -3 10 -15 10 -11 0 -31 11 -43 24 -12
13 -34 26 -47 28 -14 2 -24 9 -23 16 2 6 -3 12 -11 12 -8 0 -16 5 -18 10 -2 6
-13 12 -26 13 -12 0 -22 7 -22 14 0 7 -7 13 -15 13 -8 0 -15 4 -15 10 0 5 -11
12 -25 16 -14 3 -25 10 -25 15 0 5 -9 9 -20 9 -11 0 -23 7 -26 15 -4 8 -12 15
-20 15 -8 0 -14 6 -14 13 0 7 -9 13 -21 14 -11 1 -30 12 -41 25 -11 13 -28 22
-39 20 -10 -2 -22 4 -25 12 -3 9 -12 16 -19 16 -6 0 -25 11 -41 25 -16 14 -32
25 -36 25 -5 0 -8 7 -8 15 0 8 -5 15 -11 15 -14 0 -39 25 -39 39 0 6 -7 11
-15 11 -8 0 -15 5 -15 11 0 14 -25 39 -39 39 -6 0 -11 11 -11 25 0 14 -4 25
-10 25 -5 0 -12 11 -16 25 -3 14 -10 25 -15 25 -5 0 -9 14 -9 30 0 20 -5 30
-15 30 -10 0 -15 11 -15 35 0 19 -4 35 -10 35 -6 0 -10 68 -10 185 0 117 4
185 10 185 6 0 10 16 10 35 0 22 6 38 15 41 8 4 15 17 15 30 0 13 4 24 9 24 5
0 12 11 15 25 4 14 11 25 16 25 6 0 10 4 10 10 0 5 14 23 30 40 17 17 28 35
25 41 -4 5 1 9 9 9 9 0 16 7 16 15 0 8 6 15 14 15 8 0 16 7 20 15 3 8 12 15
21 15 8 0 15 5 15 10 0 6 7 10 15 10 8 0 15 7 15 15 0 8 7 15 15 15 8 0 15 4
15 10 0 5 11 12 25 16 14 3 25 10 25 15 0 5 11 9 24 9 13 0 26 7 30 15 3 9 19
15 41 15 19 0 35 5 35 10 0 6 72 10 195 10 107 0 195 -4 195 -9z m2400 -211
c0 -5 7 -10 15 -10 8 0 15 -7 15 -15 0 -8 6 -15 14 -15 8 0 16 -5 18 -11 2 -5
12 -12 23 -13 11 -2 19 -9 18 -15 -2 -6 2 -11 7 -11 6 0 21 -11 34 -25 13 -14
33 -25 45 -25 12 0 21 -6 21 -15 0 -8 7 -15 15 -15 8 0 15 -4 15 -10 0 -5 11
-10 25 -10 16 0 25 -6 25 -15 0 -10 10 -15 34 -15 19 0 38 -4 41 -10 3 -5 20
-10 36 -10 17 0 32 -6 35 -15 4 -9 19 -15 37 -15 l30 0 -6 -77 c-3 -43 -11
-79 -16 -81 -14 -5 -15 -149 -1 -154 5 -1 13 -31 16 -65 4 -35 11 -63 15 -63
5 0 9 -18 9 -40 0 -26 5 -40 13 -40 7 0 14 -14 15 -32 2 -18 7 -34 12 -36 6
-2 10 -10 10 -18 0 -8 7 -14 15 -14 9 0 15 -9 15 -25 0 -14 4 -25 9 -25 5 0
12 -11 15 -25 4 -14 11 -25 16 -25 6 0 10 -7 10 -15 0 -8 7 -15 15 -15 8 0 15
-5 15 -11 0 -14 25 -39 39 -39 6 0 11 -7 11 -15 0 -8 5 -15 10 -15 6 0 10 -11
10 -25 0 -20 -5 -25 -25 -25 -16 0 -25 -6 -25 -15 0 -8 -7 -15 -16 -15 -8 0
-12 -4 -9 -10 3 -6 -4 -10 -18 -10 -14 0 -32 -10 -43 -24 -10 -14 -28 -27 -41
-31 -13 -3 -23 -10 -23 -15 0 -6 -6 -10 -12 -10 -7 0 -29 -19 -48 -41 -19 -23
-43 -49 -52 -57 -10 -9 -18 -24 -18 -34 0 -10 -7 -18 -15 -18 -8 0 -15 -6 -15
-14 0 -8 -5 -16 -10 -18 -6 -2 -12 -13 -13 -26 0 -12 -7 -22 -14 -22 -8 0 -13
-14 -13 -39 0 -22 -5 -41 -11 -43 -6 -2 -13 -25 -16 -51 -3 -26 -10 -47 -14
-47 -12 0 -11 -257 0 -262 6 -1 13 -19 16 -38 3 -19 11 -37 16 -41 13 -7 -52
-79 -72 -79 -8 0 -23 -7 -33 -15 -10 -8 -23 -12 -28 -9 -4 3 -11 -2 -14 -10
-4 -10 -19 -16 -38 -16 -33 -1 -66 -20 -66 -39 0 -6 -4 -11 -10 -11 -5 0 -10
-7 -10 -16 0 -8 5 -12 10 -9 6 3 10 -4 10 -17 0 -27 32 -58 59 -58 11 0 21 -5
23 -12 6 -17 38 -19 45 -2 3 8 16 14 29 14 13 0 24 4 24 10 0 5 11 12 25 16
14 3 25 10 25 15 0 5 5 9 11 9 6 0 20 11 31 25 11 14 26 25 34 25 8 0 26 12
39 26 20 22 35 26 97 30 40 3 75 9 76 15 2 5 19 9 38 9 19 0 37 6 40 13 2 7
14 14 27 14 12 1 23 7 25 13 2 5 15 10 28 10 13 0 24 6 24 13 0 7 10 14 22 14
13 1 24 7 26 13 2 5 12 10 23 10 11 0 22 7 25 15 4 8 10 15 15 15 13 0 48 37
42 44 -4 3 6 6 20 6 20 0 27 5 27 20 0 11 7 23 15 26 8 4 15 12 15 20 0 8 5
14 11 14 17 0 39 27 39 50 0 11 7 23 15 26 9 4 15 19 15 39 0 18 5 35 11 37 5
2 11 19 13 38 1 18 8 36 14 38 8 2 12 27 12 67 0 35 4 65 10 67 5 2 11 36 12
75 2 50 7 73 16 73 7 0 12 13 12 31 l0 30 53 -4 c32 -3 51 -8 49 -16 -3 -17
172 -15 187 3 7 8 20 13 29 12 15 -3 17 -20 20 -141 2 -96 -1 -141 -9 -146 -6
-3 -14 -33 -16 -65 -3 -33 -9 -61 -13 -64 -5 -3 -10 -21 -13 -40 -2 -19 -9
-34 -16 -32 -6 1 -11 -11 -11 -28 0 -16 -4 -30 -9 -30 -5 0 -12 -11 -15 -25
-4 -14 -11 -25 -16 -25 -6 0 -10 -11 -10 -25 0 -16 -6 -25 -15 -25 -8 0 -15
-7 -15 -16 0 -8 -4 -12 -10 -9 -5 3 -10 0 -10 -8 0 -8 -7 -17 -15 -21 -8 -3
-15 -14 -15 -25 0 -11 -4 -21 -10 -23 -5 -1 -11 -14 -14 -28 -2 -14 -9 -24
-15 -22 -7 1 -11 -14 -11 -38 0 -22 -4 -40 -9 -40 -5 0 -13 -25 -16 -55 -4
-30 -11 -52 -16 -49 -5 3 -9 -19 -9 -50 0 -30 4 -56 9 -58 8 -3 15 -37 12 -65
-1 -9 -23 -13 -75 -13 -41 0 -76 -4 -78 -10 -1 -5 -60 -13 -130 -16 -71 -4
-128 -11 -128 -16 0 -11 -943 -10 -955 1 -6 5 -66 11 -135 15 -69 3 -126 6
-128 6 -2 0 0 5 3 10 3 6 -1 10 -9 10 -9 0 -16 7 -16 15 0 8 8 15 17 15 9 0
14 3 11 6 -7 6 27 44 38 44 13 0 33 35 34 58 0 13 6 22 15 22 9 0 15 9 15 24
0 13 4 26 10 28 5 2 11 24 12 50 2 30 8 48 16 48 8 0 12 18 12 55 0 38 -4 55
-13 55 -7 0 -14 14 -15 32 -2 18 -7 35 -12 38 -5 3 -10 22 -12 43 -1 22 -7 37
-15 37 -7 0 -13 5 -13 11 0 14 -25 39 -39 39 -6 0 -11 14 -11 30 0 19 -5 29
-12 28 -7 -2 -12 3 -10 10 1 6 -5 12 -13 12 -8 0 -15 8 -15 17 0 9 -3 14 -6
11 -7 -8 -44 28 -44 42 0 6 -4 10 -10 10 -13 0 -44 33 -48 51 -2 8 -8 16 -13
17 -5 2 -9 10 -9 18 0 8 -6 14 -13 14 -8 0 -20 11 -27 25 -7 14 -19 25 -27 25
-7 0 -13 4 -13 10 0 15 -33 50 -42 44 -4 -3 -8 1 -8 8 0 7 -11 22 -25 32 -14
10 -25 26 -25 35 0 9 -18 32 -40 51 -22 19 -40 41 -40 47 0 7 -6 12 -12 10 -7
-1 -12 4 -11 11 2 6 -4 12 -12 12 -8 0 -15 7 -15 15 0 8 -7 15 -16 15 -8 0
-12 5 -9 10 3 6 1 10 -4 10 -18 0 -51 39 -51 60 0 11 -5 20 -11 20 -14 0 -39
25 -39 39 0 6 -7 11 -15 11 -8 0 -15 5 -15 11 0 6 -22 33 -50 60 -27 27 -50
57 -50 67 0 10 -11 25 -25 32 -14 7 -25 18 -25 23 0 5 -11 18 -25 29 -26 20
-33 38 -15 38 6 0 10 -7 10 -16 0 -8 4 -13 8 -10 9 6 48 -35 44 -46 -1 -5 3
-8 9 -8 6 0 68 -57 137 -127 70 -71 130 -127 135 -125 4 1 7 -3 7 -8 0 -6 36
-46 80 -89 44 -43 80 -86 80 -94 0 -9 10 -17 22 -19 13 -2 24 -11 27 -23 2
-11 10 -24 17 -28 8 -5 12 -12 9 -18 -4 -5 1 -9 9 -9 9 0 16 -4 16 -9 0 -5 11
-12 25 -15 14 -4 25 -13 25 -20 0 -20 64 -86 83 -86 8 0 17 -5 19 -10 2 -6 13
-12 25 -13 13 0 25 -7 27 -14 3 -7 21 -13 41 -13 19 0 35 -4 35 -10 0 -5 25
-10 55 -10 30 0 55 5 55 10 0 6 22 10 49 10 34 0 51 4 55 15 3 8 13 15 22 15
10 0 39 23 66 50 27 28 53 50 58 50 6 0 9 6 7 13 -1 6 4 11 11 10 7 -2 12 8
12 26 0 16 4 31 9 33 5 2 12 23 15 48 3 24 10 46 15 48 16 5 14 102 -1 107 -7
3 -14 20 -15 38 -2 17 -7 33 -13 35 -5 2 -10 14 -10 27 0 12 -7 25 -15 29 -8
3 -15 15 -15 26 0 11 -4 20 -10 20 -5 0 -10 11 -10 25 0 14 -7 28 -15 31 -8 4
-15 17 -15 30 0 13 -6 24 -13 24 -7 0 -13 9 -14 20 -1 11 -13 32 -27 47 -14
15 -26 36 -26 45 0 10 -4 18 -10 18 -5 0 -10 8 -10 19 0 10 -7 24 -15 31 -8 7
-15 21 -15 31 0 11 -4 19 -9 19 -5 0 -12 11 -15 25 -4 14 -11 25 -16 25 -6 0
-10 7 -10 15 0 8 -4 15 -10 15 -5 0 -12 11 -16 25 -3 14 -10 25 -15 25 -5 0
-9 11 -9 25 0 14 -6 25 -13 25 -7 0 -14 10 -14 22 -1 13 -7 24 -13 26 -5 2
-10 15 -10 28 0 15 -6 24 -15 24 -8 0 -15 6 -15 14 0 8 -6 16 -14 19 -9 4 -12
17 -10 37 4 35 19 54 52 64 12 4 22 12 22 17 0 5 4 9 10 9 12 0 150 137 150
150 0 4 4 10 9 12 5 2 11 10 13 17 2 8 12 24 24 35 12 12 24 31 28 44 7 22 26
31 26 12z m1190 -1085 c0 -8 -4 -15 -10 -15 -5 0 -10 -11 -10 -25 0 -16 -6
-25 -15 -25 -11 0 -15 -11 -15 -40 0 -22 -4 -40 -10 -40 -5 0 -10 -18 -10 -39
0 -22 -7 -46 -15 -55 -10 -10 -15 -36 -15 -85 0 -38 -4 -73 -10 -76 -5 -3 -10
-33 -10 -66 0 -44 -4 -61 -15 -65 -11 -4 -15 -21 -15 -55 0 -33 -4 -49 -13
-49 -7 0 -14 -10 -14 -22 -1 -13 -7 -24 -13 -26 -5 -2 -10 -12 -10 -23 0 -11
-7 -22 -15 -25 -8 -4 -15 -11 -15 -16 0 -13 -56 -68 -70 -68 -6 0 -9 -4 -6 -8
7 -12 -31 -42 -53 -42 -10 0 -21 -7 -25 -15 -3 -8 -15 -15 -26 -15 -11 0 -23
-6 -26 -13 -2 -7 -14 -14 -27 -14 -12 -1 -23 -7 -25 -13 -2 -5 -14 -10 -27
-10 -12 0 -25 -7 -29 -15 -3 -9 -19 -15 -41 -15 -19 0 -35 -4 -35 -10 0 -6
-33 -10 -80 -10 -79 0 -80 0 -80 25 0 14 -4 25 -10 25 -5 0 -10 25 -10 55 0
39 -4 54 -12 52 -10 -1 -13 24 -14 101 0 78 3 102 13 102 9 0 13 18 13 65 0
37 4 65 10 65 6 0 10 11 10 25 0 14 7 28 15 31 8 4 15 16 15 28 0 14 10 28 25
36 14 7 25 19 25 27 0 7 7 13 15 13 9 0 15 9 15 25 0 20 5 25 25 25 14 0 25 5
25 11 0 14 25 39 39 39 6 0 11 7 11 15 0 8 7 15 15 15 8 0 15 4 15 9 0 5 11
12 25 15 14 4 25 11 25 16 0 6 7 10 15 10 8 0 15 4 15 10 0 5 11 12 25 16 14
3 25 10 25 15 0 5 11 9 25 9 16 0 25 6 25 15 0 9 9 15 25 15 14 0 25 5 25 10
0 6 18 10 40 10 29 0 40 4 40 15 0 10 10 15 34 15 19 0 36 6 39 13 2 7 20 14
38 15 19 1 36 7 37 12 2 6 21 10 43 10 28 0 39 -4 39 -15z m-3957 -184 c-2 -6
10 -11 27 -11 21 0 30 -5 30 -16 0 -8 5 -12 10 -9 6 3 10 -1 10 -9 0 -11 10
-16 31 -16 16 0 28 -4 25 -8 -7 -11 30 -42 50 -42 8 0 25 -11 38 -25 13 -14
31 -25 40 -25 9 0 19 -7 22 -15 4 -8 12 -15 20 -15 8 0 14 -4 14 -9 0 -5 11
-12 25 -15 14 -4 25 -11 25 -16 0 -6 11 -10 25 -10 16 0 25 -6 25 -15 0 -8 7
-15 15 -15 8 0 15 -4 15 -10 0 -5 11 -10 25 -10 14 0 25 -5 25 -11 0 -17 26
-39 52 -43 13 -2 22 -9 20 -15 -1 -6 5 -11 13 -11 8 0 15 -4 15 -9 0 -5 11
-12 25 -15 14 -4 25 -11 25 -16 0 -6 9 -10 20 -10 12 0 32 -12 45 -26 13 -14
33 -26 44 -27 12 -1 21 -7 21 -14 0 -7 6 -13 14 -13 8 0 16 -5 18 -10 2 -6 13
-12 26 -13 12 0 22 -7 22 -14 0 -7 7 -13 15 -13 8 0 15 -4 15 -10 0 -5 11 -12
25 -16 14 -3 25 -10 25 -15 0 -5 9 -9 20 -9 10 0 23 -6 27 -13 11 -18 63 -52
63 -41 0 5 10 -2 23 -16 12 -14 39 -34 60 -44 20 -11 37 -24 37 -30 0 -7 10
-13 22 -13 13 -1 24 -7 26 -13 2 -5 10 -10 18 -10 8 0 14 -7 14 -15 0 -9 9
-15 25 -15 14 0 25 -4 25 -9 0 -5 11 -12 25 -15 14 -4 25 -11 25 -16 0 -6 7
-10 16 -10 8 0 13 -4 10 -9 -4 -5 7 -12 24 -16 16 -4 30 -11 30 -16 0 -5 7 -9
15 -9 8 0 15 -7 15 -15 0 -9 10 -15 26 -15 14 0 23 -4 19 -10 -3 -5 1 -10 9
-10 9 0 16 -7 16 -15 0 -8 9 -15 20 -15 20 0 60 -28 60 -42 0 -12 -48 -10 -52
2 -2 6 -20 12 -41 13 -22 1 -37 7 -37 15 0 7 -15 12 -40 12 -22 0 -40 4 -40 9
0 5 -11 12 -25 15 -14 4 -25 11 -25 16 0 6 -12 10 -27 10 -30 0 -103 30 -103
42 0 4 -16 8 -35 8 -22 0 -38 6 -41 15 -4 8 -17 15 -29 15 -13 0 -25 5 -27 10
-2 6 -13 12 -26 13 -12 0 -22 7 -22 14 0 7 -11 13 -25 13 -14 0 -25 5 -25 10
0 6 -9 10 -20 10 -11 0 -23 7 -26 15 -4 8 -17 15 -29 15 -13 0 -25 3 -27 8 -4
10 -67 42 -82 42 -7 0 -22 11 -32 25 -10 14 -26 25 -35 25 -9 0 -22 7 -29 15
-7 8 -21 15 -30 15 -10 0 -27 11 -38 25 -11 14 -27 25 -36 25 -10 0 -28 12
-41 26 -13 14 -33 26 -44 27 -12 1 -21 7 -21 14 0 7 -7 13 -15 13 -8 0 -15 7
-15 15 0 8 -7 15 -16 15 -8 0 -12 5 -9 10 3 6 -1 10 -9 10 -9 0 -16 6 -16 13
0 7 -9 13 -21 14 -11 1 -42 25 -68 52 -27 28 -52 51 -56 51 -10 0 -35 27 -35
39 0 6 -7 11 -15 11 -8 0 -15 7 -15 15 0 8 -7 15 -16 15 -8 0 -12 5 -9 10 3 6
-1 10 -9 10 -9 0 -16 7 -16 15 0 8 -5 15 -11 15 -14 0 -39 25 -39 39 0 6 -7
11 -15 11 -8 0 -15 5 -15 10 0 6 -18 28 -40 50 -23 23 -38 45 -35 50 4 6 -1
13 -9 16 -9 3 -16 13 -16 21 0 8 6 13 13 10 6 -2 11 -10 10 -16z m397 -131
c24 -24 25 -30 4 -30 -8 0 -12 5 -9 10 3 6 -1 10 -9 10 -9 0 -16 7 -16 15 0
20 6 19 30 -5z m2660 -801 c0 -5 -7 -9 -15 -9 -15 0 -20 12 -9 23 8 8 24 -1
24 -14z m-52 -21 c-6 -18 -28 -21 -28 -4 0 9 7 16 16 16 9 0 14 -5 12 -12z"/>
<path d="M2820 4710 c0 -5 -11 -10 -25 -10 -14 0 -25 -5 -25 -11 0 -6 -6 -17
-14 -25 -8 -8 -19 -14 -25 -14 -6 0 -11 -7 -11 -15 0 -8 -7 -15 -15 -15 -8 0
-15 -4 -15 -10 0 -5 -11 -12 -25 -16 -14 -3 -25 -10 -25 -15 0 -5 -11 -9 -25
-9 -16 0 -25 -6 -25 -15 0 -9 -9 -15 -25 -15 -14 0 -25 -4 -25 -10 0 -5 7 -10
15 -10 8 0 15 -4 15 -10 0 -5 11 -12 25 -16 14 -3 22 -10 19 -15 -3 -5 2 -9
10 -9 9 0 16 -4 16 -9 0 -19 59 -23 91 -7 18 9 40 16 51 16 10 0 17 6 16 12
-2 7 7 14 20 16 12 2 22 8 22 13 0 5 7 9 15 9 9 0 15 9 15 25 0 16 6 25 15 25
9 0 15 9 15 25 0 14 5 25 10 25 6 0 10 7 10 15 0 8 -4 15 -10 15 -5 0 -10 11
-10 25 0 16 -6 25 -15 25 -8 0 -15 5 -15 10 0 6 -11 10 -25 10 -14 0 -25 -4
-25 -10z"/>
<path d="M3290 4245 c0 -9 -9 -15 -25 -15 -14 0 -25 -4 -25 -10 0 -5 -7 -10
-15 -10 -8 0 -15 -4 -15 -10 0 -15 -33 -50 -42 -44 -4 3 -8 -2 -8 -10 0 -10
-9 -16 -25 -16 -16 0 -25 -6 -25 -15 0 -9 -9 -15 -25 -15 -14 0 -25 -4 -25
-10 0 -5 -13 -10 -30 -10 -16 0 -30 -4 -30 -10 0 -5 7 -10 15 -10 8 0 15 -7
15 -15 0 -9 9 -15 21 -15 12 0 32 -11 45 -25 18 -20 33 -25 69 -25 25 0 45 4
45 10 0 5 11 12 25 16 14 3 25 10 25 15 0 5 11 9 25 9 15 0 25 6 25 14 0 8 7
16 15 20 8 3 15 15 15 26 0 11 5 20 10 20 6 0 10 6 10 14 0 8 7 22 16 30 14
15 14 17 0 32 -9 8 -16 22 -16 30 0 8 -4 14 -10 14 -5 0 -10 7 -10 15 0 9 -9
15 -25 15 -16 0 -25 -6 -25 -15z"/>
<path d="M1430 4171 c0 -5 -16 -12 -36 -16 -23 -4 -49 -19 -69 -41 -18 -19
-37 -34 -44 -34 -6 0 -11 -4 -11 -10 0 -15 -33 -50 -42 -44 -4 3 -8 -2 -8 -10
0 -10 -9 -16 -24 -16 -13 0 -26 -7 -30 -15 -3 -8 -14 -15 -25 -15 -11 0 -23
-4 -26 -10 -3 -5 -15 -10 -26 -10 -10 0 -19 -4 -19 -10 0 -5 7 -10 15 -10 8 0
25 -11 39 -25 14 -14 30 -25 36 -25 5 0 10 -7 10 -15 0 -9 9 -15 25 -15 16 0
25 -6 25 -16 0 -12 8 -14 38 -9 20 3 39 10 40 15 2 6 15 10 28 10 13 0 24 4
24 9 0 5 9 13 21 16 12 4 45 31 75 61 40 41 54 62 54 83 0 16 7 31 15 35 19 7
19 45 0 52 -8 4 -13 10 -10 14 7 11 -23 40 -41 40 -8 0 -14 5 -14 10 0 6 -4
10 -10 10 -5 0 -10 -4 -10 -9z"/>
</g>
</svg>
