<?xml version="1.0" standalone="no"?>
<!DOCTYPE svg PUBLIC "-//W3C//DTD SVG 20010904//EN"
 "http://www.w3.org/TR/2001/REC-SVG-20010904/DTD/svg10.dtd">
<svg version="1.0" xmlns="http://www.w3.org/2000/svg"
 width="800.000000pt" height="800.000000pt" viewBox="0 0 800.000000 800.000000"
 preserveAspectRatio="xMidYMid meet">

<g transform="translate(0.000000,800.000000) scale(0.100000,-0.100000)"
fill="#000000" stroke="none">
<path d="M3142 5445 c-51 -22 -90 -72 -102 -131 -8 -36 -10 -302 -8 -851 3
-777 4 -799 23 -832 11 -19 37 -48 58 -65 l39 -31 242 -3 243 -3 51 -112 c28
-62 60 -133 71 -159 l20 -47 -57 -16 c-208 -60 -343 -211 -312 -350 15 -68 33
-97 92 -150 279 -250 949 -186 1074 103 23 52 21 139 -4 188 -44 85 -164 171
-294 209 l-57 16 20 47 c11 26 43 98 71 160 l52 112 223 0 c179 0 231 3 261
15 44 19 79 50 99 90 20 38 31 242 14 273 -6 12 -7 23 -2 26 5 4 9 290 8 699
-2 691 -2 692 -24 732 -12 22 -38 51 -59 65 l-38 25 -835 2 c-707 2 -841 0
-869 -12z m1706 -71 c54 -37 52 -8 52 -879 0 -885 3 -848 -60 -880 -23 -12
-74 -15 -267 -15 -131 0 -243 -4 -249 -8 -11 -7 -30 -48 -194 -415 -75 -169
-97 -208 -116 -213 -12 -3 -30 -2 -39 3 -9 5 -61 110 -116 234 -143 323 -171
383 -183 391 -6 4 -118 8 -249 8 -262 0 -283 4 -312 60 -23 44 -23 1626 0
1670 33 64 -22 60 885 60 732 0 828 -2 848 -16z m-582 -2248 c100 -34 150 -62
199 -111 82 -82 84 -160 7 -246 -58 -65 -169 -120 -291 -144 -118 -24 -327
-17 -426 15 -142 45 -233 108 -270 187 -49 103 46 227 223 293 91 34 99 30
148 -79 55 -122 79 -146 144 -146 66 0 93 29 150 158 24 53 44 97 45 97 1 0
33 -11 71 -24z"/>
<path d="M3888 5220 c-369 -58 -635 -389 -615 -765 10 -191 76 -337 217 -476
71 -71 102 -94 181 -132 51 -26 108 -48 124 -49 17 -2 33 -7 36 -12 4 -5 36
-9 73 -10 36 0 66 -4 66 -8 0 -11 48 -10 54 1 3 5 15 7 26 4 25 -7 112 6 106
15 -2 4 12 7 33 7 40 1 171 58 171 74 0 6 3 10 8 10 20 -3 35 5 86 47 32 25
53 50 50 56 -4 6 -2 8 4 4 6 -3 30 18 55 46 177 210 217 524 97 773 -121 252
-355 408 -629 420 -47 2 -112 0 -143 -5z m322 -96 c197 -65 358 -228 421 -424
30 -91 37 -262 15 -350 -9 -36 -18 -72 -20 -80 -2 -8 2 -18 8 -22 7 -5 6 -8
-5 -8 -18 0 -62 -86 -53 -102 4 -6 3 -8 -3 -5 -6 4 -24 -10 -39 -31 -69 -90
-177 -175 -276 -217 l-38 -15 0 170 0 170 56 0 c91 0 94 4 94 123 0 173 -32
275 -119 385 -43 54 -82 69 -95 36 -3 -9 -6 -215 -6 -460 l0 -444 -27 -7 c-36
-10 -197 -9 -245 0 l-38 8 0 268 0 267 40 18 c22 10 52 34 68 53 26 35 27 40
27 167 0 121 -1 131 -19 134 -36 7 -46 -25 -46 -139 l0 -107 -32 -28 -33 -27
-5 154 -5 154 -27 3 c-35 4 -37 -6 -41 -177 l-2 -134 -30 25 c-29 26 -30 28
-35 144 -4 95 -8 119 -22 127 -12 8 -21 7 -32 -2 -26 -21 -23 -211 4 -266 20
-42 58 -77 98 -89 22 -7 22 -7 22 -262 0 -168 -3 -254 -10 -254 -19 0 -105 48
-160 89 -117 88 -211 231 -244 371 -22 92 -20 230 4 324 61 240 254 424 505
482 94 22 242 12 345 -22z m70 -603 c14 -43 20 -91 20 -152 l0 -89 -40 0 -40
0 0 183 0 182 20 -30 c11 -16 29 -59 40 -94z m-193 -737 c-3 -3 -12 -4 -19 -1
-8 3 -5 6 6 6 11 1 17 -2 13 -5z"/>
</g>
</svg>
